<svg width="673" height="196" viewBox="0 0 673 196" fill="none" xmlns="http://www.w3.org/2000/svg">
<path d="M289.941 19.9075L289.138 19.4436C288.473 19.059 287.622 19.2876 287.238 19.9529C286.854 20.6187 287.082 21.4698 287.747 21.8539L288.55 22.3177C288.769 22.4444 289.008 22.5044 289.244 22.5044C289.725 22.5044 290.193 22.2546 290.45 21.8084C290.834 21.1427 290.606 20.2915 289.941 19.9075Z" fill="#27AE60"/>
<path d="M296.527 23.7111L294.881 22.7602C294.216 22.3754 293.365 22.604 292.981 23.2697C292.597 23.9353 292.825 24.7864 293.49 25.1705L295.137 26.1214C295.356 26.2481 295.595 26.3081 295.831 26.3081C296.312 26.3081 296.779 26.0583 297.037 25.6119C297.421 24.9463 297.193 24.0952 296.527 23.7111Z" fill="#27AE60"/>
<path d="M349.217 54.1405L347.57 53.1896C346.905 52.8048 346.054 53.0333 345.67 53.6991C345.286 54.3647 345.514 55.2158 346.18 55.5998L347.826 56.5508C348.045 56.6775 348.284 56.7374 348.52 56.7374C349.001 56.7374 349.468 56.4877 349.726 56.0413C350.11 55.3757 349.882 54.5246 349.217 54.1405Z" fill="#27AE60"/>
<path d="M362.389 61.7479L360.743 60.797C360.077 60.4123 359.227 60.6407 358.843 61.3065C358.459 61.972 358.687 62.8231 359.352 63.2072L360.999 64.1581C361.217 64.2849 361.457 64.3448 361.693 64.3448C362.173 64.3448 362.641 64.0951 362.899 63.6486C363.283 62.9831 363.055 62.132 362.389 61.7479Z" fill="#27AE60"/>
<path d="M355.803 57.9442L354.156 56.9933C353.491 56.6084 352.641 56.8368 352.256 57.5028C351.872 58.1683 352.1 59.0194 352.766 59.4035L354.412 60.3544C354.631 60.4812 354.87 60.5411 355.106 60.5411C355.587 60.5411 356.055 60.2913 356.312 59.8449C356.696 59.1794 356.468 58.3283 355.803 57.9442Z" fill="#27AE60"/>
<path d="M342.631 50.3368L340.984 49.3859C340.319 49.001 339.468 49.2296 339.084 49.8954C338.7 50.5609 338.928 51.4121 339.593 51.7961L341.24 52.7471C341.459 52.8738 341.698 52.9337 341.934 52.9337C342.415 52.9337 342.882 52.684 343.14 52.2376C343.524 51.572 343.296 50.7209 342.631 50.3368Z" fill="#27AE60"/>
<path d="M375.562 69.3552L373.915 68.4042C373.25 68.0194 372.399 68.2478 372.015 68.9137C371.631 69.5793 371.859 70.4304 372.524 70.8145L374.171 71.7654C374.39 71.8922 374.629 71.9521 374.865 71.9521C375.346 71.9521 375.813 71.7024 376.071 71.2559C376.455 70.5904 376.227 69.7393 375.562 69.3552Z" fill="#27AE60"/>
<path d="M381.304 72.6718L380.501 72.208C379.836 71.8231 378.985 72.0517 378.601 72.7173C378.217 73.383 378.445 74.2341 379.111 74.6182L379.914 75.0821C380.133 75.2088 380.372 75.2687 380.608 75.2687C381.088 75.2687 381.556 75.019 381.813 74.5728C382.197 73.907 381.97 73.0559 381.304 72.6718Z" fill="#27AE60"/>
<path d="M289.941 55.8619L289.138 55.3983C288.472 55.014 287.622 55.2424 287.238 55.908C286.854 56.5737 287.082 57.4248 287.747 57.8089L288.55 58.2726C288.769 58.3991 289.008 58.4591 289.244 58.4591C289.725 58.4591 290.193 58.2093 290.45 57.7629C290.834 57.0973 290.606 56.2462 289.941 55.8619Z" fill="#27AE60"/>
<path d="M341.197 85.4636L339.596 84.5386C338.93 84.1544 338.08 84.3826 337.696 85.0483C337.312 85.7141 337.54 86.565 338.205 86.9493L339.807 87.8742C340.026 88.0008 340.265 88.0607 340.501 88.0607C340.981 88.0607 341.449 87.811 341.707 87.3645C342.091 86.6988 341.863 85.8479 341.197 85.4636Z" fill="#27AE60"/>
<path d="M347.604 89.1638L346.003 88.2388C345.338 87.8547 344.487 88.0828 344.103 88.7485C343.719 89.4141 343.947 90.2652 344.612 90.6494L346.214 91.5744C346.433 91.7009 346.672 91.7609 346.908 91.7609C347.388 91.7609 347.856 91.5111 348.114 91.0647C348.498 90.3991 348.27 89.548 347.604 89.1638Z" fill="#27AE60"/>
<path d="M296.348 59.5622L294.746 58.6372C294.081 58.2531 293.23 58.4812 292.846 59.1469C292.462 59.8123 292.69 60.6634 293.356 61.0478L294.957 61.9728C295.176 62.0993 295.415 62.1593 295.651 62.1593C296.132 62.1593 296.599 61.9095 296.857 61.4631C297.241 60.7975 297.013 59.9464 296.348 59.5622Z" fill="#27AE60"/>
<path d="M353.213 92.4031L352.41 91.9392C351.744 91.5549 350.894 91.7828 350.51 92.4485C350.126 93.1141 350.354 93.9652 351.019 94.3495L351.822 94.8133C352.041 94.9399 352.28 95 352.516 95C352.997 95 353.464 94.7504 353.722 94.304C354.106 93.6384 353.878 92.7873 353.213 92.4031Z" fill="#27AE60"/>
<path d="M381.813 19.953C381.429 19.2872 380.578 19.0597 379.914 19.4436L379.11 19.9075C378.445 20.2916 378.217 21.1427 378.601 21.8084C378.859 22.2548 379.326 22.5044 379.807 22.5044C380.043 22.5044 380.282 22.4443 380.501 22.3177L381.304 21.8539C381.969 21.4698 382.197 20.6187 381.813 19.953Z" fill="#27AE60"/>
<path d="M316.795 57.5028C316.411 56.8369 315.561 56.6088 314.895 56.9933L313.249 57.9442C312.584 58.3283 312.356 59.1794 312.74 59.845C312.997 60.2916 313.464 60.5412 313.945 60.5412C314.181 60.5412 314.42 60.481 314.639 60.3545L316.286 59.4036C316.951 59.0195 317.179 58.1684 316.795 57.5028Z" fill="#27AE60"/>
<path d="M310.209 61.3065C309.825 60.6406 308.974 60.4125 308.309 60.797L306.663 61.7479C305.997 62.132 305.769 62.9831 306.153 63.6487C306.411 64.0953 306.878 64.3449 307.359 64.3449C307.595 64.3449 307.834 64.2847 308.053 64.1582L309.7 63.2073C310.365 62.8232 310.593 61.9721 310.209 61.3065Z" fill="#27AE60"/>
<path d="M297.036 68.9137C296.652 68.2478 295.802 68.0199 295.136 68.4042L293.49 69.3551C292.825 69.7392 292.597 70.5903 292.981 71.2559C293.238 71.7025 293.706 71.952 294.186 71.952C294.422 71.952 294.661 71.8919 294.881 71.7654L296.527 70.8144C297.192 70.4304 297.42 69.5793 297.036 68.9137Z" fill="#27AE60"/>
<path d="M376.071 23.2698C375.687 22.6039 374.836 22.376 374.171 22.7603L372.524 23.7112C371.859 24.0953 371.631 24.9464 372.015 25.6119C372.273 26.0586 372.74 26.3081 373.221 26.3081C373.457 26.3081 373.696 26.248 373.915 26.1215L375.561 25.1705C376.227 24.7865 376.455 23.9354 376.071 23.2698Z" fill="#27AE60"/>
<path d="M323.381 53.6991C322.997 53.0334 322.147 52.8053 321.482 53.1896L319.835 54.1405C319.17 54.5246 318.942 55.3757 319.326 56.0413C319.583 56.4879 320.051 56.7374 320.531 56.7374C320.767 56.7374 321.006 56.6773 321.225 56.5508L322.872 55.5998C323.537 55.2158 323.765 54.3647 323.381 53.6991Z" fill="#27AE60"/>
<path d="M329.968 49.8954C329.583 49.2295 328.733 49.0014 328.068 49.3859L326.421 50.3368C325.756 50.7209 325.528 51.572 325.912 52.2376C326.169 52.6844 326.637 52.9337 327.118 52.9337C327.353 52.9337 327.593 52.8736 327.812 52.7471L329.458 51.7962C330.123 51.4121 330.351 50.561 329.968 49.8954Z" fill="#27AE60"/>
<path d="M290.45 72.7172C290.066 72.0515 289.215 71.8236 288.55 72.2079L287.747 72.6718C287.082 73.0559 286.854 73.907 287.238 74.5727C287.496 75.0191 287.963 75.2687 288.444 75.2687C288.68 75.2687 288.919 75.2086 289.138 75.082L289.941 74.6182C290.606 74.2341 290.834 73.383 290.45 72.7172Z" fill="#27AE60"/>
<path d="M381.814 55.908C381.429 55.2424 380.579 55.014 379.914 55.3983L379.111 55.8619C378.445 56.246 378.217 57.0971 378.601 57.7629C378.859 58.2095 379.326 58.4591 379.807 58.4591C380.043 58.4591 380.282 58.3991 380.501 58.2726L381.304 57.8089C381.969 57.4248 382.197 56.5737 381.814 55.908Z" fill="#27AE60"/>
<path d="M324.949 88.7485C324.565 88.0826 323.714 87.8549 323.049 88.2388L321.447 89.1638C320.782 89.548 320.554 90.3991 320.938 91.0647C321.195 91.5113 321.663 91.7609 322.144 91.7609C322.38 91.7609 322.619 91.7008 322.838 91.5744L324.439 90.6495C325.105 90.2652 325.333 89.4141 324.949 88.7485Z" fill="#27AE60"/>
<path d="M368.975 65.5514L368.436 65.2403L369.289 64.748C369.954 64.3637 370.182 63.5128 369.798 62.8471C369.414 62.1813 368.563 61.9529 367.898 62.3374L366.514 63.1369V59.3749C366.514 58.6062 365.891 57.9833 365.123 57.9833C364.355 57.9833 363.732 58.6062 363.732 59.3749V64.7434L361.492 66.037C361.492 66.0372 361.491 66.0374 361.491 66.0376L359.889 66.9625C359.889 66.9627 359.889 66.9627 359.889 66.9629L335.915 80.8075V80.156C335.915 79.3873 335.292 78.7644 334.524 78.7644C333.756 78.7644 333.133 79.3873 333.133 80.156V80.8075L305.318 64.7434V41.5007C305.318 40.7319 304.695 40.1091 303.927 40.1091C303.159 40.1091 302.536 40.7319 302.536 41.5007V63.136L301.153 62.3372C300.488 61.9529 299.637 62.1811 299.253 62.8469C298.869 63.5126 299.097 64.3635 299.763 64.7478L300.615 65.2401L300.076 65.5512C299.411 65.9353 299.183 66.7864 299.567 67.452C299.824 67.8986 300.292 68.1481 300.772 68.1481C301.008 68.1481 301.247 68.088 301.467 67.9615L303.113 67.0106C303.204 66.9579 303.287 66.8955 303.361 66.8269L333.829 84.4225C333.83 84.423 333.831 84.4234 333.832 84.4239C333.872 84.447 333.914 84.4661 333.956 84.4848C333.97 84.4911 333.983 84.4991 333.997 84.5048C334.034 84.5199 334.072 84.5312 334.11 84.5431C334.13 84.5492 334.15 84.5574 334.17 84.5627C334.208 84.5729 334.248 84.5791 334.288 84.5859C334.307 84.5893 334.326 84.5946 334.346 84.5972C334.405 84.605 334.466 84.6089 334.526 84.6089C334.703 84.6089 334.883 84.5746 335.054 84.5041C335.086 84.4911 335.116 84.4739 335.147 84.4585C335.171 84.4462 335.196 84.4364 335.22 84.4226L335.646 84.1764C335.648 84.1753 335.65 84.1748 335.652 84.1736L337.253 83.2487C337.255 83.2474 337.258 83.2457 337.26 83.2446L342.055 80.4753C342.056 80.4748 342.057 80.4742 342.059 80.4735L343.66 79.5483C343.661 79.5478 343.662 79.5472 343.663 79.5467L348.463 76.7746C348.464 76.7742 348.465 76.7739 348.466 76.7733L350.067 75.8482C350.068 75.8482 350.068 75.848 350.068 75.848L354.871 73.074C354.872 73.0739 354.872 73.0737 354.872 73.0735L356.474 72.1485C356.475 72.1482 356.476 72.1476 356.476 72.1472L365.689 66.8267C365.764 66.8955 365.846 66.9579 365.938 67.0107L367.584 67.9617C367.803 68.0884 368.042 68.1483 368.278 68.1483C368.759 68.1483 369.227 67.8986 369.484 67.4522C369.869 66.7866 369.641 65.9355 368.975 65.5514Z" fill="#27AE60"/>
<path d="M331.356 85.0481C330.972 84.3828 330.121 84.1542 329.456 84.5384L327.854 85.4634C327.189 85.8476 326.961 86.6986 327.345 87.3643C327.602 87.8107 328.07 88.0605 328.551 88.0605C328.787 88.0605 329.026 88.0005 329.245 87.874L330.846 86.949C331.512 86.5648 331.74 85.7139 331.356 85.0481Z" fill="#27AE60"/>
<path d="M376.205 59.1467C375.821 58.4808 374.971 58.2533 374.305 58.637L372.704 59.562C372.038 59.9462 371.81 60.7973 372.194 61.4629C372.452 61.9095 372.92 62.1591 373.4 62.1591C373.636 62.1591 373.875 62.099 374.094 61.9726L375.696 61.0477C376.361 60.6634 376.589 59.8123 376.205 59.1467Z" fill="#27AE60"/>
<path d="M318.542 92.4485C318.158 91.7829 317.307 91.5551 316.642 91.9391L315.839 92.403C315.174 92.7873 314.946 93.6384 315.33 94.304C315.587 94.7504 316.055 94.9999 316.535 94.9999C316.771 94.9999 317.01 94.9398 317.229 94.8133L318.032 94.3494C318.698 93.9651 318.926 93.114 318.542 92.4485Z" fill="#27AE60"/>
<path d="M381.308 37.3917L380.506 36.9254C379.842 36.5397 378.99 36.7655 378.604 37.4298C378.219 38.0942 378.444 38.946 379.108 39.3322L379.91 39.7983C380.13 39.9259 380.37 39.9868 380.608 39.9868C381.087 39.9868 381.553 39.7385 381.812 39.2941C382.197 38.6297 381.972 37.7778 381.308 37.3917Z" fill="#27AE60"/>
<path d="M330.922 8.09518L329.322 7.16503C328.658 6.77909 327.807 7.00453 327.421 7.66898C327.034 8.33323 327.26 9.18508 327.924 9.5712L329.524 10.5014C329.744 10.6292 329.984 10.6901 330.221 10.6901C330.701 10.6901 331.167 10.442 331.425 9.99759C331.811 9.33315 331.586 8.4813 330.922 8.09518Z" fill="#27AE60"/>
<path d="M324.524 4.37515L322.924 3.44501C322.26 3.05888 321.409 3.28451 321.023 3.94895C320.637 4.61339 320.862 5.46505 321.526 5.85118L323.126 6.78132C323.346 6.90916 323.586 6.97002 323.823 6.97002C324.303 6.97002 324.769 6.72195 325.027 6.27756C325.413 5.61312 325.188 4.76127 324.524 4.37515Z" fill="#27AE60"/>
<path d="M375.708 34.1356L374.108 33.2055C373.444 32.8195 372.593 33.045 372.207 33.7094C371.821 34.3739 372.046 35.2257 372.71 35.6118L374.31 36.542C374.53 36.6698 374.77 36.7307 375.007 36.7307C375.487 36.7307 375.953 36.4826 376.211 36.0382C376.597 35.3736 376.372 34.5217 375.708 34.1356Z" fill="#27AE60"/>
<path d="M369.309 30.4155L367.899 29.5957L368.975 28.9743C369.64 28.5902 369.868 27.7391 369.484 27.0736C369.1 26.4075 368.25 26.1796 367.584 26.5641L365.938 27.515C365.682 27.6625 365.492 27.8794 365.375 28.128L335.224 10.5794C335.22 10.577 335.215 10.5755 335.211 10.5731C335.162 10.5451 335.111 10.5193 335.058 10.4972C335.057 10.4965 335.055 10.4959 335.053 10.4952C335.004 10.4751 334.953 10.4582 334.901 10.4438C334.887 10.4399 334.873 10.4363 334.86 10.433C334.819 10.4228 334.777 10.4146 334.734 10.4081C334.72 10.4059 334.705 10.4031 334.69 10.4015C334.637 10.3952 334.583 10.3909 334.528 10.3909C334.526 10.3909 334.524 10.3909 334.522 10.3909C334.467 10.3909 334.413 10.3952 334.359 10.4015C334.344 10.4031 334.33 10.4059 334.315 10.4081C334.273 10.4146 334.231 10.4228 334.19 10.433C334.176 10.4365 334.162 10.4397 334.149 10.4436C334.096 10.4584 334.044 10.4753 333.994 10.4961C333.993 10.4965 333.992 10.4966 333.991 10.497C333.938 10.5193 333.887 10.5453 333.837 10.5738C333.833 10.5761 333.829 10.5774 333.825 10.5796L303.676 28.1279C303.56 27.8794 303.369 27.6625 303.114 27.5148L301.467 26.5639C300.802 26.1791 299.951 26.4077 299.567 27.0734C299.183 27.739 299.411 28.5901 300.076 28.9741L301.149 29.5935L299.731 30.4151C299.066 30.8003 298.84 31.6518 299.224 32.3168C299.482 32.7623 299.949 33.0111 300.429 33.0111C300.666 33.0111 300.905 32.9508 301.125 32.8235L302.536 32.0056V35.5939C302.536 36.3626 303.159 36.9855 303.927 36.9855C304.695 36.9855 305.318 36.3626 305.318 35.5939V32.0013L332.32 47.5958C332.291 47.8773 332.346 48.1701 332.498 48.4339C332.65 48.6974 332.876 48.8902 333.134 49.0058V74.0795C333.134 74.8482 333.756 75.4711 334.525 75.4711C335.293 75.4711 335.915 74.8482 335.915 74.0795V49.0067C336.174 48.8913 336.401 48.6981 336.554 48.4337C336.706 48.1695 336.761 47.8764 336.731 47.5945L363.729 32.0041C363.732 32.0021 363.729 32.0041 363.732 32.0021V53.3446C363.732 54.1133 364.355 54.7362 365.123 54.7362C365.891 54.7362 366.514 54.1133 366.514 53.3446V32.0089L367.912 32.8216C368.132 32.9495 368.372 33.0103 368.609 33.0103C369.089 33.0103 369.555 32.7623 369.813 32.3177C370.199 31.6533 369.973 30.8016 369.309 30.4155ZM334.525 45.6555L306.702 29.5872L333.224 14.2221L333.255 14.2042C333.472 14.6904 333.958 15.0296 334.525 15.0296C335.109 15.0296 335.608 14.6692 335.814 14.1588L335.922 14.2215C335.979 14.2547 336.037 14.2829 336.096 14.307L340.579 16.9156C340.624 16.9498 340.67 16.9824 340.721 17.0116L342.32 17.9415C342.366 17.9686 342.414 17.9909 342.462 18.012L346.993 20.6487C347.033 20.6782 347.074 20.706 347.118 20.7316L348.718 21.6617C348.751 21.681 348.786 21.6961 348.82 21.7122L353.428 24.3939C353.457 24.4138 353.486 24.4338 353.517 24.4518L355.116 25.3818C355.135 25.3929 355.156 25.4007 355.175 25.4109L359.879 28.1485C359.891 28.1561 359.902 28.1646 359.915 28.1718L361.514 29.102C361.52 29.1057 361.527 29.1079 361.533 29.1116L362.35 29.5868L334.525 45.6555Z" fill="#27AE60"/>
<path d="M318.126 0.655119L317.324 0.18884C316.66 -0.197469 315.808 0.028342 315.423 0.692785C315.036 1.35704 315.262 2.20889 315.926 2.59501L316.728 3.06129C316.948 3.18913 317.188 3.24999 317.425 3.24999C317.905 3.24999 318.371 3.00192 318.629 2.55753C319.015 1.89309 318.79 1.04124 318.126 0.655119Z" fill="#27AE60"/>
<path d="M290.397 37.4323C290.012 36.7671 289.161 36.5404 288.496 36.9256L287.694 37.3906C287.029 37.7758 286.803 38.6273 287.187 39.2923C287.445 39.7378 287.912 39.9866 288.392 39.9866C288.629 39.9866 288.869 39.9263 289.088 39.799L289.89 39.334C290.555 38.9488 290.782 38.0973 290.397 37.4323Z" fill="#27AE60"/>
<path d="M348.175 3.94967C347.79 3.28448 346.939 3.05774 346.274 3.44294L344.669 4.3729C344.005 4.75791 343.778 5.60939 344.163 6.27457C344.421 6.72007 344.888 6.96889 345.368 6.96889C345.604 6.96889 345.844 6.90858 346.063 6.7813L347.668 5.85134C348.333 5.46633 348.56 4.61485 348.175 3.94967Z" fill="#27AE60"/>
<path d="M341.755 7.66991C341.37 7.00473 340.519 6.77799 339.855 7.16318L338.25 8.09333C337.585 8.47853 337.358 9.33 337.743 9.995C338.001 10.4405 338.468 10.6893 338.948 10.6893C339.185 10.6893 339.424 10.629 339.644 10.5017L341.249 9.57158C341.913 9.18639 342.14 8.33491 341.755 7.66991Z" fill="#27AE60"/>
<path d="M296.817 33.7121C296.432 33.047 295.581 32.8202 294.916 33.2054L293.311 34.1356C292.646 34.5208 292.42 35.3722 292.805 36.0372C293.062 36.4829 293.529 36.7316 294.009 36.7316C294.246 36.7316 294.486 36.6713 294.705 36.544L296.31 35.6138C296.975 35.2286 297.202 34.3771 296.817 33.7121Z" fill="#27AE60"/>
<path d="M353.792 0.694071C353.407 0.0290707 352.556 -0.197482 351.892 0.187713L351.089 0.652879C350.425 1.03807 350.198 1.88955 350.583 2.55455C350.841 2.99986 351.308 3.24868 351.788 3.24868C352.024 3.24868 352.264 3.18819 352.484 3.06091L353.286 2.59574C353.951 2.21055 354.177 1.35907 353.792 0.694071Z" fill="#27AE60"/>
<path d="M334.525 40.0781C333.756 40.0781 333.134 40.7009 333.134 41.4697V43.3251C333.134 44.0938 333.756 44.7167 334.525 44.7167C335.293 44.7167 335.915 44.0938 335.915 43.3251V41.4697C335.915 40.7011 335.293 40.0781 334.525 40.0781Z" fill="#27AE60"/>
<path d="M334.525 17.8126C333.756 17.8126 333.134 18.4355 333.134 19.2042V21.0597C333.134 21.8284 333.756 22.4513 334.525 22.4513C335.293 22.4513 335.915 21.8284 335.915 21.0597V19.2042C335.915 18.4355 335.293 17.8126 334.525 17.8126Z" fill="#27AE60"/>
<path d="M334.525 25.2345C333.756 25.2345 333.134 25.8574 333.134 26.6261V28.4816C333.134 29.2503 333.756 29.8732 334.525 29.8732C335.293 29.8732 335.915 29.2503 335.915 28.4816V26.6261C335.915 25.8574 335.293 25.2345 334.525 25.2345Z" fill="#27AE60"/>
<path d="M334.525 32.6564C333.756 32.6564 333.134 33.2793 333.134 34.048V35.9035C333.134 36.6722 333.756 37.2951 334.525 37.2951C335.293 37.2951 335.915 36.6722 335.915 35.9035V34.048C335.915 33.2793 335.293 32.6564 334.525 32.6564Z" fill="#27AE60"/>
<mask id="mask0" mask-type="alpha" maskUnits="userSpaceOnUse" x="-1" y="39" width="704" height="169">
<path d="M502.226 80.3856H0V207H702V40H502.226V80.3856Z" fill="#C4C4C4" stroke="black"/>
</mask>
<g mask="url(#mask0)">
<path d="M38.304 97.136C48.48 97.136 56.448 100.544 62.208 107.36C67.968 114.08 70.848 123.008 70.848 134.144C70.848 145.376 67.968 154.304 62.208 160.928C56.448 167.552 48.48 170.864 38.304 170.864C27.936 170.864 19.872 167.552 14.112 160.928C8.352 154.208 5.472 145.28 5.472 134.144C5.472 123.008 8.352 114.08 14.112 107.36C19.968 100.544 28.032 97.136 38.304 97.136ZM38.304 165.536C46.752 165.536 53.088 162.752 57.312 157.184C61.632 151.52 63.792 143.84 63.792 134.144C63.792 124.544 61.632 116.912 57.312 111.248C53.088 105.488 46.752 102.608 38.304 102.608C29.76 102.608 23.328 105.44 19.008 111.104C14.784 116.672 12.672 124.352 12.672 134.144C12.672 143.84 14.784 151.52 19.008 157.184C23.232 162.752 29.664 165.536 38.304 165.536ZM149.655 133.712C149.655 140.816 148.407 147.2 145.911 152.864C143.415 158.432 139.815 162.848 135.111 166.112C130.407 169.28 124.887 170.864 118.551 170.864C113.847 170.864 109.671 170.048 106.023 168.416C102.471 166.688 99.3514 164 96.6634 160.352V189.584L104.151 189.872C106.071 190.064 107.031 190.928 107.031 192.464V195.344H79.3834V192.464C79.3834 190.928 80.3434 190.064 82.2634 189.872L89.7514 189.584V103.904L82.2634 103.616C80.3434 103.424 79.3834 102.56 79.3834 101.024V98.288H93.4954C94.3594 98.288 94.9354 98.432 95.2234 98.72C95.5114 98.912 95.6554 99.344 95.6554 100.016L96.3754 111.248C99.6394 106.832 103.431 103.376 107.751 100.88C112.071 98.384 116.727 97.136 121.719 97.136C131.127 97.136 138.135 100.4 142.743 106.928C147.351 113.456 149.655 122.384 149.655 133.712ZM142.599 133.712C142.599 113.072 135.015 102.752 119.847 102.752C110.631 102.752 102.903 107.408 96.6634 116.72V154.304C101.559 161.792 108.375 165.536 117.111 165.536C125.559 165.536 131.895 162.656 136.119 156.896C140.439 151.04 142.599 143.312 142.599 133.712ZM193.122 97.136C201.858 97.136 208.722 100.064 213.714 105.92C218.802 111.776 221.346 119.36 221.346 128.672C221.346 130.496 220.674 131.408 219.33 131.408H167.634C167.634 142.064 169.842 150.416 174.258 156.464C178.674 162.512 185.298 165.536 194.13 165.536C197.682 165.536 201.378 164.912 205.218 163.664C209.154 162.416 212.226 160.832 214.434 158.912C215.202 158.144 215.97 157.76 216.738 157.76C217.41 157.76 217.89 158 218.178 158.48L220.05 160.784C217.554 163.856 213.714 166.304 208.53 168.128C203.442 169.952 198.45 170.864 193.554 170.864C182.898 170.864 174.738 167.36 169.074 160.352C163.506 153.248 160.722 144.032 160.722 132.704C160.722 125.888 162.018 119.792 164.61 114.416C167.298 109.04 171.09 104.816 175.986 101.744C180.882 98.672 186.594 97.136 193.122 97.136ZM193.266 102.32C185.97 102.32 180.114 104.528 175.698 108.944C171.378 113.264 168.786 119.264 167.922 126.944H215.154C215.154 119.456 213.138 113.504 209.106 109.088C205.17 104.576 199.89 102.32 193.266 102.32ZM308.476 164.528C310.396 164.72 311.356 165.584 311.356 167.12V170H294.076V124.208C294.076 117.488 292.54 112.256 289.468 108.512C286.396 104.672 281.692 102.752 275.356 102.752C266.236 102.752 258.268 107.264 251.452 116.288V164.24L259.084 164.528C260.908 164.624 261.82 165.488 261.82 167.12V170H234.316V167.12C234.316 165.488 235.228 164.624 237.052 164.528L244.684 164.24V103.904L236.908 103.616C235.948 103.52 235.228 103.28 234.748 102.896C234.364 102.512 234.172 101.888 234.172 101.024V98.288H248.428C249.772 98.288 250.492 98.864 250.588 100.016L251.164 110.96C258.364 101.84 267.004 97.28 277.084 97.28C284.86 97.28 290.764 99.68 294.796 104.48C298.924 109.28 300.988 115.856 300.988 124.208V164.24L308.476 164.528ZM338.415 80C336.591 80 335.055 79.376 333.807 78.128C332.655 76.88 332.079 75.344 332.079 73.52C332.079 71.792 332.655 70.352 333.807 69.2C335.055 67.952 336.591 67.328 338.415 67.328C340.143 67.328 341.583 67.952 342.735 69.2C343.983 70.352 344.607 71.792 344.607 73.52C344.607 75.344 343.983 76.88 342.735 78.128C341.583 79.376 340.143 80 338.415 80ZM349.359 164.528C351.279 164.72 352.239 165.584 352.239 167.12V170H324.591V167.12C324.591 165.584 325.551 164.72 327.471 164.528L334.959 164.24V104.048L327.471 103.76C325.551 103.568 324.591 102.704 324.591 101.168V98.288H341.871V164.24L349.359 164.528ZM439.679 164.528C441.599 164.72 442.559 165.584 442.559 167.12V170H425.279V124.208C425.279 117.488 423.743 112.256 420.671 108.512C417.599 104.672 412.895 102.752 406.559 102.752C397.439 102.752 389.471 107.264 382.655 116.288V164.24L390.287 164.528C392.111 164.624 393.023 165.488 393.023 167.12V170H365.519V167.12C365.519 165.488 366.431 164.624 368.255 164.528L375.887 164.24V103.904L368.111 103.616C367.151 103.52 366.431 103.28 365.951 102.896C365.567 102.512 365.375 101.888 365.375 101.024V98.288H379.631C380.975 98.288 381.695 98.864 381.791 100.016L382.367 110.96C389.567 101.84 398.207 97.28 408.287 97.28C416.063 97.28 421.967 99.68 425.999 104.48C430.127 109.28 432.191 115.856 432.191 124.208V164.24L439.679 164.528ZM509.362 160.784C506.674 164.144 503.074 166.688 498.562 168.416C494.146 170.144 489.586 171.008 484.882 171.008C478.546 171.008 473.026 169.424 468.322 166.256C463.714 162.992 460.162 158.576 457.666 153.008C455.266 147.44 454.066 141.152 454.066 134.144C454.066 126.944 455.314 120.56 457.81 114.992C460.306 109.424 464.002 105.104 468.898 102.032C473.794 98.864 479.65 97.28 486.466 97.28C492.514 97.28 499.234 98.768 506.626 101.744V119.744H503.17C501.25 119.744 500.194 118.592 500.002 116.288C500.002 116 499.906 114.896 499.714 112.976C499.522 110.96 499.33 108.32 499.138 105.056C494.434 103.424 490.354 102.608 486.898 102.608C478.546 102.608 472.162 105.488 467.746 111.248C463.33 117.008 461.122 124.64 461.122 134.144C461.122 143.552 463.282 151.136 467.602 156.896C471.922 162.656 478.018 165.536 485.89 165.536C489.346 165.536 492.754 164.912 496.114 163.664C499.474 162.416 502.114 160.832 504.034 158.912C504.802 158.144 505.522 157.76 506.194 157.76C506.77 157.76 507.202 158 507.49 158.48L509.362 160.784ZM535.712 80C533.888 80 532.352 79.376 531.104 78.128C529.952 76.88 529.376 75.344 529.376 73.52C529.376 71.792 529.952 70.352 531.104 69.2C532.352 67.952 533.888 67.328 535.712 67.328C537.44 67.328 538.88 67.952 540.032 69.2C541.28 70.352 541.904 71.792 541.904 73.52C541.904 75.344 541.28 76.88 540.032 78.128C538.88 79.376 537.44 80 535.712 80ZM546.656 164.528C548.576 164.72 549.536 165.584 549.536 167.12V170H521.888V167.12C521.888 165.584 522.848 164.72 524.768 164.528L532.256 164.24V104.048L524.768 103.76C522.848 103.568 521.888 102.704 521.888 101.168V98.288H539.168V164.24L546.656 164.528ZM585.28 171.152C580.192 171.152 576.352 169.76 573.76 166.976C571.168 164.096 569.872 160.016 569.872 154.736V105.776H559.648C559.072 105.776 558.592 105.632 558.208 105.344C557.92 105.056 557.776 104.624 557.776 104.048V101.456L570.016 100.592L571.744 74.96C571.744 74.576 571.888 74.192 572.176 73.808C572.56 73.424 572.992 73.232 573.472 73.232H576.784V100.592H599.392V105.776H576.784V154.304C576.784 157.856 577.648 160.64 579.376 162.656C581.2 164.576 583.648 165.536 586.72 165.536C589.6 165.536 592.864 164.192 596.512 161.504C597.088 161.216 597.52 161.072 597.808 161.072C598.48 161.072 599.008 161.36 599.392 161.936L600.976 164.528C599.152 166.544 596.752 168.176 593.776 169.424C590.896 170.576 588.064 171.152 585.28 171.152ZM644.388 97.136C653.124 97.136 659.988 100.064 664.98 105.92C670.068 111.776 672.612 119.36 672.612 128.672C672.612 130.496 671.94 131.408 670.596 131.408H618.9C618.9 142.064 621.108 150.416 625.524 156.464C629.94 162.512 636.564 165.536 645.396 165.536C648.948 165.536 652.644 164.912 656.484 163.664C660.42 162.416 663.492 160.832 665.7 158.912C666.468 158.144 667.236 157.76 668.004 157.76C668.676 157.76 669.156 158 669.444 158.48L671.316 160.784C668.82 163.856 664.98 166.304 659.796 168.128C654.708 169.952 649.716 170.864 644.82 170.864C634.164 170.864 626.004 167.36 620.34 160.352C614.772 153.248 611.988 144.032 611.988 132.704C611.988 125.888 613.284 119.792 615.876 114.416C618.564 109.04 622.356 104.816 627.252 101.744C632.148 98.672 637.86 97.136 644.388 97.136ZM644.532 102.32C637.236 102.32 631.38 104.528 626.964 108.944C622.644 113.264 620.052 119.264 619.188 126.944H666.42C666.42 119.456 664.404 113.504 660.372 109.088C656.436 104.576 651.156 102.32 644.532 102.32Z" fill="black"/>
</g>
</svg>
