<svg width="695" height="212" viewBox="0 0 695 212" fill="none" xmlns="http://www.w3.org/2000/svg">
<path d="M302.441 19.9075L301.638 19.4436C300.973 19.059 300.122 19.2876 299.738 19.9529C299.354 20.6187 299.582 21.4698 300.247 21.8539L301.05 22.3177C301.269 22.4444 301.508 22.5044 301.744 22.5044C302.225 22.5044 302.693 22.2546 302.95 21.8084C303.334 21.1427 303.106 20.2915 302.441 19.9075Z" fill="#F39200"/>
<path d="M309.027 23.7111L307.381 22.7602C306.716 22.3754 305.865 22.604 305.481 23.2697C305.097 23.9353 305.325 24.7864 305.99 25.1705L307.637 26.1214C307.856 26.2481 308.095 26.3081 308.331 26.3081C308.812 26.3081 309.279 26.0583 309.537 25.6119C309.921 24.9463 309.693 24.0952 309.027 23.7111Z" fill="#F39200"/>
<path d="M361.717 54.1405L360.07 53.1896C359.405 52.8048 358.554 53.0333 358.17 53.6991C357.786 54.3647 358.014 55.2158 358.68 55.5998L360.326 56.5508C360.545 56.6775 360.784 56.7374 361.02 56.7374C361.501 56.7374 361.968 56.4877 362.226 56.0413C362.61 55.3757 362.382 54.5246 361.717 54.1405Z" fill="#F39200"/>
<path d="M374.889 61.7479L373.243 60.797C372.577 60.4123 371.727 60.6407 371.343 61.3065C370.959 61.972 371.187 62.8231 371.852 63.2072L373.498 64.1581C373.717 64.2849 373.957 64.3448 374.193 64.3448C374.673 64.3448 375.141 64.0951 375.399 63.6486C375.783 62.9831 375.555 62.132 374.889 61.7479Z" fill="#F39200"/>
<path d="M368.303 57.9442L366.656 56.9933C365.991 56.6084 365.141 56.8368 364.756 57.5028C364.372 58.1683 364.6 59.0194 365.266 59.4035L366.912 60.3544C367.131 60.4812 367.37 60.5411 367.606 60.5411C368.087 60.5411 368.555 60.2913 368.812 59.8449C369.196 59.1794 368.968 58.3283 368.303 57.9442Z" fill="#F39200"/>
<path d="M355.131 50.3368L353.484 49.3859C352.819 49.001 351.968 49.2296 351.584 49.8954C351.2 50.5609 351.428 51.412 352.093 51.7961L353.74 52.7471C353.959 52.8738 354.198 52.9337 354.434 52.9337C354.915 52.9337 355.382 52.684 355.64 52.2375C356.024 51.572 355.796 50.7209 355.131 50.3368Z" fill="#F39200"/>
<path d="M388.062 69.3552L386.415 68.4042C385.75 68.0194 384.899 68.2478 384.515 68.9137C384.131 69.5793 384.359 70.4304 385.024 70.8145L386.671 71.7654C386.89 71.8922 387.129 71.9521 387.365 71.9521C387.846 71.9521 388.313 71.7024 388.571 71.2559C388.955 70.5904 388.727 69.7393 388.062 69.3552Z" fill="#F39200"/>
<path d="M393.804 72.6718L393.001 72.208C392.336 71.8231 391.485 72.0517 391.101 72.7173C390.717 73.383 390.945 74.2341 391.61 74.6182L392.414 75.0821C392.632 75.2088 392.872 75.2687 393.108 75.2687C393.588 75.2687 394.056 75.019 394.313 74.5728C394.697 73.907 394.47 73.0559 393.804 72.6718Z" fill="#F39200"/>
<path d="M302.441 55.8619L301.638 55.3983C300.972 55.014 300.122 55.2424 299.738 55.908C299.354 56.5737 299.582 57.4248 300.247 57.8089L301.05 58.2726C301.269 58.3991 301.508 58.4591 301.744 58.4591C302.225 58.4591 302.693 58.2093 302.95 57.7629C303.334 57.0973 303.106 56.2462 302.441 55.8619Z" fill="#F39200"/>
<path d="M353.697 85.4636L352.096 84.5386C351.43 84.1544 350.58 84.3826 350.196 85.0483C349.812 85.7141 350.04 86.565 350.705 86.9493L352.307 87.8742C352.526 88.0008 352.765 88.0607 353.001 88.0607C353.481 88.0607 353.949 87.811 354.207 87.3645C354.591 86.6988 354.363 85.8479 353.697 85.4636Z" fill="#F39200"/>
<path d="M360.104 89.1638L358.503 88.2388C357.838 87.8547 356.987 88.0828 356.603 88.7485C356.219 89.4141 356.447 90.2652 357.112 90.6494L358.714 91.5744C358.933 91.7009 359.172 91.7609 359.408 91.7609C359.888 91.7609 360.356 91.5111 360.614 91.0647C360.998 90.3991 360.77 89.548 360.104 89.1638Z" fill="#F39200"/>
<path d="M308.848 59.5622L307.246 58.6372C306.581 58.2531 305.73 58.4812 305.346 59.1469C304.962 59.8123 305.19 60.6634 305.856 61.0478L307.457 61.9728C307.676 62.0993 307.915 62.1593 308.151 62.1593C308.632 62.1593 309.1 61.9095 309.357 61.4631C309.741 60.7975 309.513 59.9464 308.848 59.5622Z" fill="#F39200"/>
<path d="M365.713 92.4031L364.91 91.9392C364.244 91.5549 363.394 91.7828 363.01 92.4485C362.626 93.1141 362.854 93.9652 363.519 94.3495L364.322 94.8133C364.541 94.9399 364.78 95 365.016 95C365.497 95 365.964 94.7504 366.222 94.304C366.606 93.6384 366.378 92.7873 365.713 92.4031Z" fill="#F39200"/>
<path d="M394.313 19.953C393.929 19.2872 393.078 19.0597 392.414 19.4436L391.61 19.9075C390.945 20.2916 390.717 21.1427 391.101 21.8084C391.359 22.2548 391.826 22.5044 392.307 22.5044C392.543 22.5044 392.782 22.4443 393.001 22.3177L393.804 21.8539C394.469 21.4698 394.697 20.6187 394.313 19.953Z" fill="#F39200"/>
<path d="M329.295 57.5028C328.911 56.8369 328.061 56.6088 327.395 56.9933L325.749 57.9442C325.084 58.3283 324.856 59.1794 325.24 59.845C325.497 60.2916 325.964 60.5412 326.445 60.5412C326.681 60.5412 326.92 60.481 327.139 60.3545L328.786 59.4036C329.451 59.0195 329.679 58.1684 329.295 57.5028Z" fill="#F39200"/>
<path d="M322.709 61.3065C322.325 60.6406 321.474 60.4125 320.809 60.797L319.163 61.7479C318.497 62.132 318.269 62.9831 318.653 63.6487C318.911 64.0953 319.378 64.3449 319.859 64.3449C320.095 64.3449 320.334 64.2847 320.553 64.1582L322.2 63.2073C322.865 62.8232 323.093 61.9721 322.709 61.3065Z" fill="#F39200"/>
<path d="M309.536 68.9137C309.152 68.2478 308.302 68.0199 307.636 68.4042L305.99 69.3551C305.325 69.7392 305.097 70.5903 305.481 71.2559C305.738 71.7025 306.206 71.952 306.686 71.952C306.922 71.952 307.161 71.8919 307.381 71.7654L309.027 70.8144C309.692 70.4304 309.92 69.5793 309.536 68.9137Z" fill="#F39200"/>
<path d="M388.571 23.2698C388.187 22.6039 387.336 22.376 386.671 22.7603L385.024 23.7112C384.359 24.0953 384.131 24.9464 384.515 25.6119C384.773 26.0586 385.24 26.3081 385.721 26.3081C385.957 26.3081 386.196 26.248 386.415 26.1215L388.061 25.1705C388.727 24.7865 388.955 23.9354 388.571 23.2698Z" fill="#F39200"/>
<path d="M335.881 53.6991C335.497 53.0334 334.647 52.8053 333.982 53.1896L332.335 54.1405C331.67 54.5246 331.442 55.3757 331.826 56.0413C332.083 56.4879 332.551 56.7374 333.031 56.7374C333.267 56.7374 333.506 56.6773 333.725 56.5508L335.372 55.5998C336.037 55.2158 336.265 54.3647 335.881 53.6991Z" fill="#F39200"/>
<path d="M342.468 49.8954C342.083 49.2295 341.233 49.0014 340.568 49.3859L338.921 50.3368C338.256 50.7209 338.028 51.572 338.412 52.2376C338.669 52.6844 339.137 52.9337 339.618 52.9337C339.853 52.9337 340.093 52.8736 340.312 52.7471L341.958 51.7962C342.623 51.4121 342.851 50.561 342.468 49.8954Z" fill="#F39200"/>
<path d="M302.95 72.7172C302.566 72.0515 301.715 71.8236 301.05 72.2079L300.247 72.6718C299.582 73.0559 299.354 73.907 299.738 74.5727C299.996 75.0191 300.463 75.2687 300.944 75.2687C301.18 75.2687 301.419 75.2086 301.638 75.082L302.441 74.6182C303.106 74.2341 303.334 73.383 302.95 72.7172Z" fill="#F39200"/>
<path d="M394.314 55.908C393.929 55.2424 393.079 55.014 392.414 55.3983L391.611 55.8619C390.945 56.246 390.717 57.0971 391.101 57.7629C391.359 58.2095 391.827 58.4591 392.307 58.4591C392.543 58.4591 392.782 58.3991 393.001 58.2726L393.804 57.8089C394.469 57.4248 394.697 56.5737 394.314 55.908Z" fill="#F39200"/>
<path d="M337.449 88.7485C337.065 88.0826 336.214 87.8549 335.549 88.2388L333.947 89.1638C333.282 89.548 333.054 90.3991 333.438 91.0647C333.695 91.5113 334.163 91.7609 334.644 91.7609C334.88 91.7609 335.119 91.7008 335.338 91.5744L336.939 90.6495C337.605 90.2652 337.833 89.4141 337.449 88.7485Z" fill="#F39200"/>
<path d="M381.475 65.5514L380.936 65.2403L381.789 64.748C382.454 64.3637 382.682 63.5128 382.298 62.8471C381.914 62.1813 381.063 61.9529 380.398 62.3374L379.014 63.1369V59.3749C379.014 58.6062 378.391 57.9833 377.623 57.9833C376.855 57.9833 376.232 58.6062 376.232 59.3749V64.7434L373.992 66.037C373.992 66.0372 373.991 66.0374 373.991 66.0376L372.389 66.9625C372.389 66.9627 372.389 66.9627 372.389 66.9629L348.415 80.8075V80.156C348.415 79.3873 347.792 78.7644 347.024 78.7644C346.256 78.7644 345.633 79.3873 345.633 80.156V80.8075L317.818 64.7434V41.5007C317.818 40.7319 317.195 40.1091 316.427 40.1091C315.659 40.1091 315.036 40.7319 315.036 41.5007V63.136L313.653 62.3372C312.988 61.9529 312.137 62.1811 311.753 62.8469C311.369 63.5126 311.597 64.3635 312.263 64.7478L313.115 65.2401L312.576 65.5512C311.911 65.9353 311.683 66.7864 312.067 67.452C312.324 67.8986 312.792 68.1481 313.272 68.1481C313.508 68.1481 313.747 68.088 313.967 67.9615L315.613 67.0106C315.704 66.9579 315.787 66.8955 315.861 66.8269L346.329 84.4225C346.33 84.423 346.331 84.4234 346.332 84.4239C346.372 84.447 346.414 84.4661 346.456 84.4848C346.47 84.4911 346.483 84.4991 346.497 84.5048C346.534 84.5199 346.572 84.5312 346.61 84.5431C346.63 84.5492 346.65 84.5574 346.67 84.5627C346.708 84.5729 346.748 84.5791 346.788 84.5859C346.807 84.5893 346.826 84.5946 346.846 84.5972C346.905 84.605 346.966 84.6089 347.026 84.6089C347.203 84.6089 347.383 84.5746 347.554 84.5041C347.586 84.4911 347.616 84.4739 347.647 84.4585C347.671 84.4462 347.696 84.4364 347.72 84.4226L348.146 84.1764C348.148 84.1753 348.15 84.1748 348.152 84.1736L349.753 83.2487C349.756 83.2474 349.758 83.2457 349.76 83.2446L354.555 80.4753C354.556 80.4748 354.557 80.4742 354.559 80.4735L356.16 79.5483C356.161 79.5478 356.162 79.5472 356.163 79.5467L360.963 76.7746C360.964 76.7742 360.965 76.7739 360.966 76.7733L362.567 75.8482C362.568 75.8482 362.568 75.848 362.568 75.848L367.371 73.074C367.372 73.0739 367.372 73.0737 367.372 73.0735L368.974 72.1485C368.975 72.1482 368.976 72.1476 368.976 72.1472L378.189 66.8267C378.264 66.8955 378.346 66.9579 378.438 67.0107L380.084 67.9617C380.303 68.0884 380.542 68.1483 380.778 68.1483C381.259 68.1483 381.727 67.8986 381.984 67.4522C382.369 66.7866 382.141 65.9355 381.475 65.5514Z" fill="#F39200"/>
<path d="M343.856 85.0481C343.472 84.3828 342.621 84.1542 341.956 84.5384L340.354 85.4634C339.689 85.8476 339.461 86.6986 339.845 87.3643C340.102 87.8107 340.57 88.0605 341.051 88.0605C341.287 88.0605 341.526 88.0005 341.745 87.874L343.346 86.949C344.012 86.5648 344.24 85.7139 343.856 85.0481Z" fill="#F39200"/>
<path d="M388.705 59.1467C388.321 58.4808 387.471 58.2533 386.805 58.637L385.204 59.562C384.538 59.9462 384.31 60.7973 384.694 61.4629C384.952 61.9095 385.42 62.1591 385.9 62.1591C386.136 62.1591 386.375 62.099 386.594 61.9726L388.196 61.0477C388.861 60.6634 389.089 59.8123 388.705 59.1467Z" fill="#F39200"/>
<path d="M331.042 92.4485C330.658 91.7829 329.807 91.5551 329.142 91.9391L328.339 92.403C327.674 92.7873 327.446 93.6384 327.83 94.304C328.087 94.7504 328.555 94.9999 329.035 94.9999C329.271 94.9999 329.51 94.9398 329.729 94.8133L330.532 94.3494C331.198 93.9651 331.426 93.114 331.042 92.4485Z" fill="#F39200"/>
<path d="M393.808 37.3917L393.006 36.9254C392.342 36.5397 391.49 36.7655 391.105 37.4298C390.719 38.0942 390.944 38.946 391.608 39.3322L392.41 39.7983C392.63 39.9259 392.87 39.9868 393.108 39.9868C393.587 39.9868 394.053 39.7385 394.312 39.2941C394.697 38.6297 394.472 37.7778 393.808 37.3917Z" fill="#F39200"/>
<path d="M343.422 8.09518L341.822 7.16503C341.158 6.77909 340.307 7.00453 339.921 7.66898C339.534 8.33323 339.76 9.18508 340.424 9.5712L342.024 10.5014C342.244 10.6292 342.484 10.6901 342.721 10.6901C343.201 10.6901 343.667 10.442 343.925 9.99759C344.311 9.33315 344.086 8.4813 343.422 8.09518Z" fill="#F39200"/>
<path d="M337.024 4.37515L335.424 3.44501C334.76 3.05888 333.909 3.28451 333.523 3.94895C333.137 4.61339 333.362 5.46505 334.026 5.85118L335.626 6.78132C335.846 6.90916 336.086 6.97002 336.323 6.97002C336.803 6.97002 337.269 6.72195 337.527 6.27756C337.913 5.61312 337.688 4.76127 337.024 4.37515Z" fill="#F39200"/>
<path d="M388.208 34.1356L386.608 33.2055C385.944 32.8195 385.093 33.045 384.707 33.7094C384.321 34.3739 384.546 35.2257 385.21 35.6118L386.81 36.542C387.03 36.6698 387.27 36.7307 387.508 36.7307C387.987 36.7307 388.453 36.4826 388.711 36.0382C389.097 35.3736 388.872 34.5217 388.208 34.1356Z" fill="#F39200"/>
<path d="M381.809 30.4155L380.399 29.5957L381.475 28.9743C382.14 28.5902 382.368 27.7391 381.985 27.0736C381.6 26.4075 380.75 26.1796 380.085 26.5641L378.438 27.515C378.182 27.6625 377.992 27.8794 377.875 28.128L347.724 10.5794C347.72 10.577 347.715 10.5755 347.711 10.5731C347.662 10.5451 347.611 10.5193 347.558 10.4972C347.557 10.4965 347.555 10.4959 347.553 10.4952C347.504 10.4751 347.453 10.4582 347.401 10.4438C347.387 10.4399 347.373 10.4363 347.36 10.433C347.319 10.4228 347.277 10.4146 347.234 10.4081C347.22 10.4059 347.205 10.4031 347.191 10.4015C347.137 10.3952 347.083 10.3909 347.028 10.3909C347.026 10.3909 347.024 10.3909 347.022 10.3909C346.967 10.3909 346.913 10.3952 346.859 10.4015C346.844 10.4031 346.83 10.4059 346.815 10.4081C346.773 10.4146 346.731 10.4228 346.69 10.433C346.676 10.4365 346.662 10.4397 346.649 10.4436C346.596 10.4584 346.544 10.4753 346.494 10.4961C346.493 10.4965 346.492 10.4966 346.491 10.497C346.438 10.5193 346.387 10.5453 346.337 10.5738C346.333 10.5761 346.329 10.5774 346.325 10.5796L316.176 28.1279C316.06 27.8794 315.869 27.6625 315.614 27.5148L313.967 26.5639C313.302 26.1791 312.451 26.4077 312.067 27.0734C311.683 27.739 311.911 28.5901 312.577 28.9741L313.649 29.5935L312.231 30.4151C311.566 30.8003 311.34 31.6518 311.724 32.3168C311.982 32.7623 312.449 33.0111 312.929 33.0111C313.166 33.0111 313.406 32.9508 313.625 32.8235L315.036 32.0056V35.5939C315.036 36.3626 315.659 36.9855 316.427 36.9855C317.196 36.9855 317.818 36.3626 317.818 35.5939V32.0013L344.82 47.5958C344.791 47.8773 344.846 48.1701 344.998 48.4339C345.15 48.6974 345.376 48.8902 345.634 49.0058V74.0795C345.634 74.8482 346.256 75.4711 347.025 75.4711C347.793 75.4711 348.415 74.8482 348.415 74.0795V49.0067C348.674 48.8913 348.901 48.6981 349.054 48.4337C349.206 48.1695 349.261 47.8764 349.231 47.5945L376.229 32.0041C376.232 32.0021 376.229 32.0041 376.232 32.0021V53.3446C376.232 54.1133 376.855 54.7362 377.623 54.7362C378.391 54.7362 379.014 54.1133 379.014 53.3446V32.0089L380.412 32.8216C380.632 32.9495 380.872 33.0103 381.109 33.0103C381.589 33.0103 382.055 32.7623 382.313 32.3177C382.699 31.6533 382.473 30.8016 381.809 30.4155ZM347.025 45.6555L319.202 29.5872L345.724 14.2221L345.755 14.2042C345.972 14.6904 346.458 15.0296 347.025 15.0296C347.609 15.0296 348.108 14.6692 348.314 14.1588L348.422 14.2215C348.479 14.2547 348.537 14.2829 348.596 14.307L353.079 16.9156C353.124 16.9498 353.171 16.9824 353.221 17.0116L354.82 17.9415C354.866 17.9686 354.914 17.9909 354.962 18.012L359.493 20.6487C359.533 20.6782 359.574 20.706 359.618 20.7316L361.218 21.6617C361.251 21.681 361.286 21.6961 361.32 21.7122L365.928 24.3939C365.957 24.4138 365.986 24.4338 366.017 24.4518L367.616 25.3818C367.635 25.3929 367.656 25.4007 367.675 25.4109L372.379 28.1485C372.391 28.1561 372.402 28.1646 372.415 28.1718L374.014 29.102C374.02 29.1057 374.027 29.1079 374.033 29.1116L374.85 29.5868L347.025 45.6555Z" fill="#F39200"/>
<path d="M330.626 0.655119L329.824 0.18884C329.16 -0.197469 328.308 0.028342 327.923 0.692785C327.536 1.35704 327.762 2.20889 328.426 2.59501L329.228 3.06129C329.448 3.18913 329.688 3.24999 329.925 3.24999C330.405 3.24999 330.871 3.00192 331.129 2.55753C331.515 1.89309 331.29 1.04124 330.626 0.655119Z" fill="#F39200"/>
<path d="M302.897 37.4323C302.512 36.7671 301.661 36.5404 300.996 36.9256L300.194 37.3906C299.529 37.7758 299.303 38.6273 299.687 39.2923C299.945 39.7378 300.412 39.9866 300.892 39.9866C301.129 39.9866 301.369 39.9263 301.588 39.799L302.39 39.334C303.055 38.9488 303.282 38.0973 302.897 37.4323Z" fill="#F39200"/>
<path d="M360.675 3.94967C360.29 3.28448 359.439 3.05774 358.774 3.44294L357.169 4.3729C356.505 4.75791 356.278 5.60939 356.663 6.27457C356.921 6.72007 357.388 6.96889 357.868 6.96889C358.104 6.96889 358.344 6.90858 358.563 6.7813L360.168 5.85134C360.833 5.46633 361.06 4.61485 360.675 3.94967Z" fill="#F39200"/>
<path d="M354.255 7.66991C353.87 7.00473 353.019 6.77799 352.355 7.16318L350.75 8.09333C350.085 8.47853 349.858 9.33 350.243 9.995C350.501 10.4405 350.968 10.6893 351.448 10.6893C351.685 10.6893 351.924 10.629 352.144 10.5017L353.749 9.57158C354.413 9.18639 354.64 8.33491 354.255 7.66991Z" fill="#F39200"/>
<path d="M309.317 33.7121C308.932 33.047 308.081 32.8202 307.416 33.2054L305.811 34.1356C305.146 34.5208 304.92 35.3722 305.305 36.0372C305.562 36.4829 306.029 36.7316 306.509 36.7316C306.746 36.7316 306.986 36.6713 307.205 36.544L308.81 35.6138C309.475 35.2286 309.702 34.3771 309.317 33.7121Z" fill="#F39200"/>
<path d="M366.292 0.694071C365.907 0.0290707 365.056 -0.197482 364.392 0.187713L363.589 0.652879C362.925 1.03807 362.698 1.88955 363.083 2.55455C363.341 2.99986 363.808 3.24868 364.288 3.24868C364.524 3.24868 364.764 3.18819 364.984 3.06091L365.786 2.59574C366.451 2.21055 366.677 1.35907 366.292 0.694071Z" fill="#F39200"/>
<path d="M347.025 40.0781C346.256 40.0781 345.634 40.7009 345.634 41.4697V43.3251C345.634 44.0938 346.256 44.7167 347.025 44.7167C347.793 44.7167 348.415 44.0938 348.415 43.3251V41.4697C348.415 40.7011 347.793 40.0781 347.025 40.0781Z" fill="#F39200"/>
<path d="M347.025 17.8126C346.256 17.8126 345.634 18.4355 345.634 19.2042V21.0597C345.634 21.8284 346.256 22.4513 347.025 22.4513C347.793 22.4513 348.415 21.8284 348.415 21.0597V19.2042C348.415 18.4355 347.793 17.8126 347.025 17.8126Z" fill="#F39200"/>
<path d="M347.025 25.2345C346.256 25.2345 345.634 25.8574 345.634 26.6261V28.4816C345.634 29.2503 346.256 29.8732 347.025 29.8732C347.793 29.8732 348.415 29.2503 348.415 28.4816V26.6261C348.415 25.8574 347.793 25.2345 347.025 25.2345Z" fill="#F39200"/>
<path d="M347.025 32.6564C346.256 32.6564 345.634 33.2793 345.634 34.048V35.9035C345.634 36.6722 346.256 37.2951 347.025 37.2951C347.793 37.2951 348.415 36.6722 348.415 35.9035V34.048C348.415 33.2793 347.793 32.6564 347.025 32.6564Z" fill="#F39200"/>
<mask id="mask0" mask-type="alpha" maskUnits="userSpaceOnUse" x="-1" y="56" width="697" height="157">
<path d="M528.5 98.5H0V212H695V98.5H600V56.5H528.5V98.5Z" fill="#C4C4C4" stroke="black"/>
</mask>
<g mask="url(#mask0)">
<path d="M44.516 102.984C49.796 102.984 54.596 103.848 58.916 105.576C63.14 107.304 66.836 109.8 70.004 113.064C72.98 116.136 75.284 120.072 76.916 124.872C78.548 129.576 79.364 134.76 79.364 140.424C79.364 146.088 78.548 151.272 76.916 155.976C75.284 160.776 72.98 164.712 70.004 167.784C66.836 171.048 63.14 173.544 58.916 175.272C54.596 177 49.796 177.864 44.516 177.864C39.236 177.864 34.436 177 30.116 175.272C25.892 173.544 22.196 171.048 19.028 167.784C16.148 164.808 13.796 160.872 11.972 155.976C10.436 151.848 9.668 146.664 9.668 140.424C9.668 134.184 10.436 129 11.972 124.872C13.796 119.976 16.148 116.04 19.028 113.064C22.196 109.8 25.892 107.304 30.116 105.576C34.436 103.848 39.236 102.984 44.516 102.984ZM44.516 168.072C51.908 168.072 57.284 165.672 60.644 160.872C64.196 155.88 65.972 149.112 65.972 140.568C65.972 132.024 64.196 125.256 60.644 120.264C57.284 115.464 51.908 113.064 44.516 113.064C40.772 113.064 37.604 113.64 35.012 114.792C32.516 115.944 30.308 117.768 28.388 120.264C26.564 122.76 25.22 125.64 24.356 128.904C23.396 132.744 22.916 136.68 22.916 140.712C22.916 144.552 23.396 148.392 24.356 152.232C25.22 155.496 26.564 158.376 28.388 160.872C30.02 163.08 32.228 164.808 35.012 166.056C38.084 167.4 41.252 168.072 44.516 168.072ZM107.346 115.368C114.354 106.92 122.514 102.696 131.826 102.696C140.37 102.696 147.09 105.864 151.986 112.2C156.978 118.92 159.474 128.232 159.474 140.136C159.474 151.08 156.69 160.056 151.122 167.064C145.266 174.36 137.874 178.008 128.946 178.008C120.018 178.008 113.01 175.176 107.922 169.512V191.112L111.81 191.976L115.986 192.84C117.522 193.128 118.29 194.04 118.29 195.576V201.768H84.5941V195.576C84.5941 194.04 85.3621 193.128 86.8981 192.84L94.9621 191.256V114.648C90.5461 113.784 87.8581 113.208 86.8981 112.92C85.3621 112.632 84.5941 111.72 84.5941 110.184V104.136H102.738C104.466 104.136 105.618 105 106.194 106.728L107.202 115.368H107.346ZM107.922 159.432C112.242 165.192 117.81 168.072 124.626 168.072C131.73 168.072 137.106 165.672 140.754 160.872C144.402 156.072 146.226 149.16 146.226 140.136C146.226 131.208 144.642 124.488 141.474 119.976C138.306 115.368 133.65 113.064 127.506 113.064C119.922 113.064 113.394 116.76 107.922 124.152V159.432ZM203.258 102.984C207.482 102.984 211.466 103.704 215.21 105.144C219.05 106.584 222.218 108.648 224.714 111.336C227.594 114.408 229.706 117.816 231.05 121.56C232.586 125.88 233.354 130.488 233.354 135.384C233.354 137.592 233.162 138.936 232.778 139.416C232.298 140.088 231.434 140.424 230.186 140.424H181.802C181.802 145.032 182.378 149.064 183.53 152.52C184.49 155.496 186.122 158.28 188.426 160.872C190.538 163.272 192.938 165 195.626 166.056C198.506 167.208 201.578 167.784 204.842 167.784C208.298 167.784 211.082 167.448 213.194 166.776C215.21 166.104 217.226 165.288 219.242 164.328C221.354 163.272 222.794 162.504 223.562 162.024C224.81 161.256 225.77 160.872 226.442 160.872C227.498 160.872 228.314 161.304 228.89 162.168L232.49 166.92C231.146 168.648 229.226 170.28 226.73 171.816C223.85 173.64 221.498 174.84 219.674 175.416C216.794 176.376 214.202 177.048 211.898 177.432C209.018 177.912 206.378 178.152 203.978 178.152C198.986 178.152 194.33 177.288 190.01 175.56C185.882 173.928 182.186 171.384 178.922 167.928C175.85 164.76 173.45 160.68 171.722 155.688C169.994 150.792 169.13 145.224 169.13 138.984C169.13 133.992 169.946 129.288 171.578 124.872C173.21 120.36 175.466 116.52 178.346 113.352C181.322 110.088 184.922 107.544 189.146 105.72C193.37 103.896 198.074 102.984 203.258 102.984ZM203.546 112.344C197.306 112.344 192.458 114.12 189.002 117.672C185.45 121.416 183.242 126.408 182.378 132.648H221.978C221.978 129.672 221.546 126.984 220.682 124.584C219.626 121.608 218.474 119.448 217.226 118.104C215.594 116.376 213.626 114.984 211.322 113.928C209.114 112.968 206.474 112.488 203.402 112.488L203.546 112.344ZM264.485 114.504C271.685 106.728 279.749 102.84 288.677 102.84C296.549 102.84 302.597 105.384 306.821 110.472C310.949 115.464 313.013 122.136 313.013 130.488V166.344C317.621 167.208 320.357 167.784 321.221 168.072C322.757 168.36 323.525 169.272 323.525 170.808V177H300.197V130.632C300.197 118.92 295.109 113.064 284.933 113.064C277.733 113.064 271.109 116.472 265.061 123.288V166.488C265.445 166.488 268.229 167.064 273.413 168.216C274.853 168.504 275.573 169.416 275.573 170.952V177H242.021V170.952C242.021 169.416 242.693 168.504 244.037 168.216L252.389 166.632V114.648C247.589 113.784 244.805 113.208 244.037 112.92C242.693 112.632 242.021 111.72 242.021 110.184V104.136H259.877C261.605 104.136 262.757 105 263.333 106.728L264.485 114.648V114.504ZM342.101 87.576C341.333 86.808 340.661 85.848 340.085 84.696C339.605 83.736 339.365 82.584 339.365 81.24C339.365 79.8 339.605 78.6 340.085 77.64C340.757 76.296 341.429 75.288 342.101 74.616C342.869 73.848 343.829 73.176 344.981 72.6C345.941 72.12 347.093 71.88 348.437 71.88C349.781 71.88 350.933 72.12 351.893 72.6C353.045 73.176 354.005 73.848 354.773 74.616C355.445 75.288 356.117 76.296 356.789 77.64C357.365 78.792 357.653 79.992 357.653 81.24C357.653 82.392 357.365 83.544 356.789 84.696C356.213 85.848 355.541 86.808 354.773 87.576C354.005 88.344 353.045 89.016 351.893 89.592C350.933 90.072 349.781 90.312 348.437 90.312C347.093 90.312 345.941 90.072 344.981 89.592C343.829 89.016 342.869 88.344 342.101 87.576ZM362.981 168.072C363.653 168.168 364.181 168.504 364.565 169.08C364.949 169.56 365.141 170.136 365.141 170.808V177H331.589V170.808C331.589 170.136 331.781 169.56 332.165 169.08C332.549 168.504 333.077 168.168 333.749 168.072L342.101 166.488V114.504L333.749 112.92C333.077 112.824 332.549 112.536 332.165 112.056C331.781 111.48 331.589 110.856 331.589 110.184V104.136H354.773V166.488L362.981 168.072ZM396.11 114.504C403.31 106.728 411.374 102.84 420.302 102.84C428.174 102.84 434.222 105.384 438.446 110.472C442.574 115.464 444.638 122.136 444.638 130.488V166.344C449.246 167.208 451.982 167.784 452.846 168.072C454.382 168.36 455.15 169.272 455.15 170.808V177H431.822V130.632C431.822 118.92 426.734 113.064 416.558 113.064C409.358 113.064 402.734 116.472 396.686 123.288V166.488C397.07 166.488 399.854 167.064 405.038 168.216C406.478 168.504 407.198 169.416 407.198 170.952V177H373.646V170.952C373.646 169.416 374.318 168.504 375.662 168.216L384.014 166.632V114.648C379.214 113.784 376.43 113.208 375.662 112.92C374.318 112.632 373.646 111.72 373.646 110.184V104.136H391.502C393.23 104.136 394.382 105 394.958 106.728L396.11 114.648V114.504ZM520.958 166.776C514.91 174.264 505.886 178.008 493.886 178.008C484.67 178.008 477.086 174.696 471.134 168.072C464.894 161.064 461.774 151.848 461.774 140.424C461.774 129.288 464.702 120.312 470.558 113.496C476.702 106.488 485.246 102.984 496.19 102.984C501.662 102.984 508.862 104.712 517.79 108.168V127.176H512.03C510.686 127.176 509.87 126.504 509.582 125.16C509.486 124.872 509.294 123.048 509.006 119.688L508.574 114.936C507.518 114.552 506.462 114.264 505.406 114.072C504.446 113.88 503.774 113.736 503.39 113.64C500.798 113.256 498.11 113.064 495.326 113.064C492.83 113.064 490.19 113.688 487.406 114.936C484.814 116.088 482.558 117.864 480.638 120.264C476.99 125.064 475.166 131.784 475.166 140.424C475.166 149.064 477.086 155.88 480.926 160.872C484.67 165.672 489.806 168.072 496.334 168.072C502.382 168.072 507.71 166.056 512.318 162.024C513.086 161.256 514.046 160.872 515.198 160.872C516.254 160.872 517.022 161.256 517.502 162.024L520.958 166.776ZM538.976 87.576C538.208 86.808 537.536 85.848 536.96 84.696C536.48 83.736 536.24 82.584 536.24 81.24C536.24 79.8 536.48 78.6 536.96 77.64C537.632 76.296 538.304 75.288 538.976 74.616C539.744 73.848 540.704 73.176 541.856 72.6C542.816 72.12 543.968 71.88 545.312 71.88C546.656 71.88 547.808 72.12 548.768 72.6C549.92 73.176 550.88 73.848 551.648 74.616C552.32 75.288 552.992 76.296 553.664 77.64C554.24 78.792 554.528 79.992 554.528 81.24C554.528 82.392 554.24 83.544 553.664 84.696C553.088 85.848 552.416 86.808 551.648 87.576C550.88 88.344 549.92 89.016 548.768 89.592C547.808 90.072 546.656 90.312 545.312 90.312C543.968 90.312 542.816 90.072 541.856 89.592C540.704 89.016 539.744 88.344 538.976 87.576ZM559.856 168.072C560.528 168.168 561.056 168.504 561.44 169.08C561.824 169.56 562.016 170.136 562.016 170.808V177H528.464V170.808C528.464 170.136 528.656 169.56 529.04 169.08C529.424 168.504 529.952 168.168 530.624 168.072L538.976 166.488V114.504L530.624 112.92C529.952 112.824 529.424 112.536 529.04 112.056C528.656 111.48 528.464 110.856 528.464 110.184V104.136H551.648V166.488L559.856 168.072ZM596.873 178.152C591.305 178.152 586.889 176.52 583.625 173.256C580.553 170.184 579.017 165.576 579.017 159.432V114.792H570.233C569.369 114.792 568.697 114.6 568.217 114.216C567.737 113.832 567.497 113.112 567.497 112.056V107.016L579.449 105.432L582.329 82.824C582.329 82.056 582.617 81.48 583.193 81.096C583.673 80.712 584.345 80.52 585.209 80.52H591.689V105.576H612.569V114.936H591.689V158.712C591.689 161.88 592.409 164.184 593.849 165.624C595.289 167.064 597.257 167.784 599.753 167.784C600.809 167.784 602.009 167.592 603.353 167.208C604.217 166.92 605.081 166.536 605.945 166.056C606.233 165.864 606.521 165.672 606.809 165.48C607.097 165.288 607.385 165.096 607.673 164.904C608.441 164.52 608.921 164.328 609.113 164.328C609.785 164.328 610.361 164.712 610.841 165.48L614.585 171.528C611.993 173.736 609.305 175.368 606.521 176.424C603.353 177.576 600.137 178.152 596.873 178.152ZM654.945 102.984C659.17 102.984 663.154 103.704 666.898 105.144C670.738 106.584 673.906 108.648 676.402 111.336C679.282 114.408 681.394 117.816 682.738 121.56C684.274 125.88 685.042 130.488 685.042 135.384C685.042 137.592 684.85 138.936 684.466 139.416C683.986 140.088 683.122 140.424 681.874 140.424H633.49C633.49 145.032 634.066 149.064 635.218 152.52C636.178 155.496 637.81 158.28 640.114 160.872C642.226 163.272 644.626 165 647.314 166.056C650.194 167.208 653.266 167.784 656.53 167.784C659.986 167.784 662.77 167.448 664.882 166.776C666.898 166.104 668.914 165.288 670.93 164.328C673.042 163.272 674.482 162.504 675.25 162.024C676.498 161.256 677.458 160.872 678.13 160.872C679.186 160.872 680.002 161.304 680.578 162.168L684.178 166.92C682.834 168.648 680.914 170.28 678.418 171.816C675.538 173.64 673.186 174.84 671.362 175.416C668.482 176.376 665.89 177.048 663.586 177.432C660.706 177.912 658.066 178.152 655.666 178.152C650.674 178.152 646.018 177.288 641.698 175.56C637.57 173.928 633.874 171.384 630.61 167.928C627.538 164.76 625.138 160.68 623.41 155.688C621.682 150.792 620.818 145.224 620.818 138.984C620.818 133.992 621.634 129.288 623.266 124.872C624.898 120.36 627.154 116.52 630.034 113.352C633.01 110.088 636.61 107.544 640.834 105.72C645.058 103.896 649.762 102.984 654.945 102.984ZM655.234 112.344C648.994 112.344 644.146 114.12 640.69 117.672C637.138 121.416 634.93 126.408 634.066 132.648H673.666C673.666 129.672 673.234 126.984 672.37 124.584C671.314 121.608 670.162 119.448 668.914 118.104C667.282 116.376 665.314 114.984 663.01 113.928C660.802 112.968 658.162 112.488 655.09 112.488L655.234 112.344Z" fill="black"/>
</g>
</svg>
