<svg width="315" height="77" viewBox="0 0 315 77" fill="none" xmlns="http://www.w3.org/2000/svg">
<path d="M139.65 4.40061L139.473 4.29807C139.326 4.21304 139.138 4.26357 139.053 4.41065C138.968 4.55782 139.018 4.74596 139.165 4.83086L139.343 4.9334C139.391 4.96141 139.444 4.97466 139.496 4.97466C139.602 4.97466 139.706 4.91945 139.763 4.82081C139.848 4.67365 139.797 4.48551 139.65 4.40061Z" fill="#27AE60"/>
<path d="M141.106 5.24142L140.742 5.03122C140.595 4.94615 140.407 4.99668 140.322 5.14384C140.237 5.29097 140.288 5.47911 140.435 5.56401L140.799 5.77421C140.847 5.80223 140.9 5.81547 140.952 5.81547C141.058 5.81547 141.162 5.76027 141.219 5.66158C141.303 5.51446 141.253 5.32632 141.106 5.24142Z" fill="#27AE60"/>
<path d="M152.753 11.9679L152.389 11.7577C152.242 11.6726 152.054 11.7232 151.969 11.8703C151.884 12.0175 151.935 12.2056 152.082 12.2905L152.446 12.5007C152.494 12.5287 152.547 12.542 152.599 12.542C152.705 12.542 152.809 12.4868 152.866 12.3881C152.951 12.241 152.9 12.0528 152.753 11.9679Z" fill="#27AE60"/>
<path d="M155.665 13.6496L155.301 13.4394C155.154 13.3543 154.966 13.4048 154.881 13.552C154.796 13.6991 154.847 13.8872 154.994 13.9721L155.358 14.1824C155.406 14.2104 155.459 14.2236 155.511 14.2236C155.617 14.2236 155.721 14.1684 155.778 14.0697C155.862 13.9226 155.812 13.7345 155.665 13.6496Z" fill="#27AE60"/>
<path d="M154.209 12.8087L153.845 12.5985C153.698 12.5135 153.51 12.564 153.425 12.7112C153.34 12.8583 153.391 13.0464 153.538 13.1313L153.902 13.3415C153.95 13.3695 154.003 13.3828 154.055 13.3828C154.161 13.3828 154.265 13.3276 154.322 13.2289C154.407 13.0818 154.356 12.8936 154.209 12.8087Z" fill="#27AE60"/>
<path d="M151.297 11.1271L150.933 10.9169C150.786 10.8318 150.598 10.8824 150.513 11.0295C150.428 11.1767 150.479 11.3648 150.626 11.4497L150.99 11.6599C151.038 11.6879 151.091 11.7012 151.143 11.7012C151.25 11.7012 151.353 11.646 151.41 11.5473C151.495 11.4001 151.444 11.212 151.297 11.1271Z" fill="#27AE60"/>
<path d="M158.577 15.3312L158.213 15.121C158.066 15.0359 157.878 15.0864 157.793 15.2336C157.708 15.3807 157.758 15.5689 157.905 15.6538L158.269 15.864C158.318 15.892 158.371 15.9052 158.423 15.9052C158.529 15.9052 158.632 15.85 158.689 15.7513C158.774 15.6042 158.724 15.4161 158.577 15.3312Z" fill="#27AE60"/>
<path d="M159.846 16.0643L159.669 15.9618C159.522 15.8767 159.334 15.9273 159.249 16.0744C159.164 16.2215 159.214 16.4097 159.361 16.4946L159.539 16.5971C159.587 16.6251 159.64 16.6384 159.692 16.6384C159.798 16.6384 159.902 16.5832 159.959 16.4845C160.044 16.3374 159.993 16.1492 159.846 16.0643Z" fill="#27AE60"/>
<path d="M139.65 12.3485L139.473 12.246C139.325 12.161 139.137 12.2115 139.053 12.3586C138.968 12.5058 139.018 12.6939 139.165 12.7788L139.343 12.8813C139.391 12.9093 139.444 12.9226 139.496 12.9226C139.602 12.9226 139.706 12.8673 139.763 12.7687C139.848 12.6215 139.797 12.4334 139.65 12.3485Z" fill="#27AE60"/>
<path d="M150.98 18.892L150.626 18.6875C150.479 18.6026 150.291 18.653 150.206 18.8002C150.122 18.9474 150.172 19.1355 150.319 19.2204L150.673 19.4249C150.722 19.4528 150.774 19.4661 150.827 19.4661C150.933 19.4661 151.036 19.4109 151.093 19.3122C151.178 19.165 151.128 18.9769 150.98 18.892Z" fill="#27AE60"/>
<path d="M152.397 19.7099L152.043 19.5055C151.896 19.4206 151.708 19.471 151.623 19.6181C151.538 19.7653 151.588 19.9534 151.735 20.0383L152.089 20.2428C152.138 20.2708 152.191 20.284 152.243 20.284C152.349 20.284 152.452 20.2288 152.509 20.1301C152.594 19.983 152.544 19.7949 152.397 19.7099Z" fill="#27AE60"/>
<path d="M141.066 13.1664L140.712 12.9619C140.565 12.877 140.377 12.9274 140.292 13.0746C140.207 13.2217 140.258 13.4098 140.405 13.4948L140.759 13.6993C140.807 13.7272 140.86 13.7405 140.912 13.7405C141.019 13.7405 141.122 13.6853 141.179 13.5866C141.264 13.4395 141.213 13.2513 141.066 13.1664Z" fill="#27AE60"/>
<path d="M153.636 20.426L153.459 20.3234C153.312 20.2385 153.124 20.2889 153.039 20.436C152.954 20.5832 153.004 20.7713 153.152 20.8562L153.329 20.9588C153.377 20.9867 153.43 21 153.483 21C153.589 21 153.692 20.9449 153.749 20.8462C153.834 20.6991 153.784 20.5109 153.636 20.426Z" fill="#27AE60"/>
<path d="M159.959 4.41066C159.874 4.2635 159.686 4.21321 159.539 4.29807L159.361 4.40061C159.214 4.48551 159.164 4.67365 159.249 4.82082C159.306 4.9195 159.409 4.97467 159.515 4.97467C159.567 4.97467 159.62 4.96138 159.669 4.93341L159.846 4.83087C159.993 4.74596 160.044 4.55782 159.959 4.41066Z" fill="#27AE60"/>
<path d="M145.586 12.7112C145.501 12.564 145.313 12.5136 145.166 12.5985L144.802 12.8087C144.655 12.8936 144.605 13.0818 144.69 13.2289C144.747 13.3276 144.85 13.3828 144.956 13.3828C145.008 13.3828 145.061 13.3695 145.11 13.3415L145.474 13.1313C145.621 13.0464 145.671 12.8583 145.586 12.7112Z" fill="#27AE60"/>
<path d="M144.13 13.552C144.046 13.4048 143.857 13.3544 143.71 13.4394L143.346 13.6496C143.199 13.7345 143.149 13.9226 143.234 14.0697C143.291 14.1685 143.394 14.2236 143.5 14.2236C143.553 14.2236 143.605 14.2103 143.654 14.1824L144.018 13.9722C144.165 13.8873 144.215 13.6991 144.13 13.552Z" fill="#27AE60"/>
<path d="M141.219 15.2336C141.134 15.0864 140.946 15.036 140.799 15.121L140.435 15.3312C140.288 15.4161 140.237 15.6042 140.322 15.7513C140.379 15.85 140.482 15.9052 140.589 15.9052C140.641 15.9052 140.694 15.8919 140.742 15.864L141.106 15.6537C141.253 15.5688 141.303 15.3807 141.219 15.2336Z" fill="#27AE60"/>
<path d="M158.689 5.14386C158.604 4.99665 158.416 4.94629 158.269 5.03123L157.905 5.24144C157.758 5.32634 157.708 5.51448 157.793 5.6616C157.85 5.76032 157.953 5.81549 158.059 5.81549C158.111 5.81549 158.164 5.8022 158.213 5.77423L158.577 5.56402C158.724 5.47912 158.774 5.29098 158.689 5.14386Z" fill="#27AE60"/>
<path d="M147.042 11.8704C146.957 11.7232 146.769 11.6728 146.622 11.7577L146.258 11.9679C146.111 12.0528 146.061 12.241 146.146 12.3881C146.203 12.4868 146.306 12.542 146.412 12.542C146.464 12.542 146.517 12.5287 146.566 12.5007L146.93 12.2905C147.077 12.2056 147.127 12.0175 147.042 11.8704Z" fill="#27AE60"/>
<path d="M148.498 11.0295C148.413 10.8823 148.225 10.8319 148.078 10.9169L147.714 11.1271C147.567 11.212 147.517 11.4001 147.602 11.5473C147.658 11.646 147.762 11.7012 147.868 11.7012C147.92 11.7012 147.973 11.6879 148.022 11.6599L148.386 11.4497C148.533 11.3648 148.583 11.1767 148.498 11.0295Z" fill="#27AE60"/>
<path d="M139.763 16.0744C139.678 15.9272 139.49 15.8768 139.343 15.9618L139.165 16.0643C139.018 16.1492 138.968 16.3374 139.053 16.4845C139.11 16.5832 139.213 16.6384 139.319 16.6384C139.371 16.6384 139.424 16.6251 139.473 16.5971L139.65 16.4946C139.797 16.4097 139.848 16.2215 139.763 16.0744Z" fill="#27AE60"/>
<path d="M159.959 12.3586C159.874 12.2115 159.686 12.161 159.539 12.246L159.361 12.3485C159.214 12.4334 159.164 12.6215 159.249 12.7687C159.306 12.8674 159.409 12.9226 159.515 12.9226C159.567 12.9226 159.62 12.9093 159.669 12.8813L159.846 12.7788C159.993 12.6939 160.044 12.5058 159.959 12.3586Z" fill="#27AE60"/>
<path d="M147.389 19.6181C147.304 19.4709 147.116 19.4206 146.969 19.5055L146.615 19.7099C146.468 19.7949 146.417 19.983 146.502 20.1301C146.559 20.2289 146.662 20.284 146.769 20.284C146.821 20.284 146.874 20.2707 146.922 20.2428L147.276 20.0383C147.423 19.9534 147.474 19.7653 147.389 19.6181Z" fill="#27AE60"/>
<path d="M157.121 14.4903L157.002 14.4216L157.19 14.3127C157.337 14.2278 157.388 14.0397 157.303 13.8925C157.218 13.7454 157.03 13.6949 156.883 13.7799L156.577 13.9566V13.125C156.577 12.9551 156.439 12.8174 156.269 12.8174C156.099 12.8174 155.962 12.9551 155.962 13.125V14.3117L155.467 14.5977C155.467 14.5977 155.467 14.5978 155.466 14.5978L155.112 14.8023C155.112 14.8023 155.112 14.8023 155.112 14.8023L149.813 17.8627V17.7187C149.813 17.5488 149.675 17.4111 149.505 17.4111C149.336 17.4111 149.198 17.5488 149.198 17.7187V17.8627L143.049 14.3117V9.17384C143.049 9.00392 142.912 8.86623 142.742 8.86623C142.572 8.86623 142.434 9.00392 142.434 9.17384V13.9564L142.129 13.7798C141.981 13.6949 141.793 13.7453 141.709 13.8925C141.624 14.0397 141.674 14.2278 141.821 14.3127L142.01 14.4215L141.89 14.4903C141.743 14.5752 141.693 14.7633 141.778 14.9105C141.835 15.0092 141.938 15.0644 142.044 15.0644C142.097 15.0644 142.149 15.0511 142.198 15.0231L142.562 14.8129C142.582 14.8012 142.6 14.7875 142.617 14.7723L149.352 18.6618C149.352 18.662 149.352 18.662 149.352 18.6622C149.361 18.6673 149.37 18.6715 149.38 18.6756C149.383 18.677 149.386 18.6788 149.389 18.6801C149.397 18.6834 149.405 18.6859 149.414 18.6885C149.418 18.6899 149.423 18.6917 149.427 18.6928C149.436 18.6951 149.444 18.6965 149.453 18.698C149.457 18.6987 149.462 18.6999 149.466 18.7005C149.479 18.7022 149.492 18.7031 149.506 18.7031C149.545 18.7031 149.585 18.6955 149.622 18.6799C149.629 18.677 149.636 18.6732 149.643 18.6698C149.648 18.6671 149.654 18.6649 149.659 18.6619L149.753 18.6075C149.754 18.6072 149.754 18.6071 149.755 18.6068L150.109 18.4024C150.109 18.4021 150.11 18.4017 150.11 18.4015L151.17 17.7893C151.17 17.7892 151.171 17.7891 151.171 17.7889L151.525 17.5844C151.525 17.5843 151.525 17.5842 151.526 17.584L152.587 16.9713C152.587 16.9712 152.587 16.9711 152.587 16.971L152.941 16.7665C152.941 16.7665 152.941 16.7664 152.941 16.7664L154.003 16.1532C154.003 16.1532 154.003 16.1532 154.003 16.1531L154.357 15.9487C154.358 15.9486 154.358 15.9484 154.358 15.9484L156.394 14.7722C156.411 14.7875 156.429 14.8012 156.449 14.8129L156.813 15.0231C156.862 15.0511 156.915 15.0644 156.967 15.0644C157.073 15.0644 157.176 15.0092 157.233 14.9105C157.318 14.7634 157.268 14.5752 157.121 14.4903Z" fill="#27AE60"/>
<path d="M148.805 18.8001C148.72 18.6531 148.532 18.6025 148.385 18.6875L148.031 18.8919C147.884 18.9769 147.833 19.165 147.918 19.3121C147.975 19.4108 148.079 19.466 148.185 19.466C148.237 19.466 148.29 19.4528 148.338 19.4248L148.692 19.2203C148.839 19.1354 148.89 18.9473 148.805 18.8001Z" fill="#27AE60"/>
<path d="M158.719 13.0746C158.634 12.9274 158.446 12.8771 158.299 12.9619L157.945 13.1664C157.798 13.2513 157.748 13.4394 157.832 13.5866C157.889 13.6853 157.993 13.7405 158.099 13.7405C158.151 13.7405 158.204 13.7272 158.252 13.6992L158.606 13.4948C158.753 13.4098 158.804 13.2217 158.719 13.0746Z" fill="#27AE60"/>
<path d="M145.972 20.436C145.887 20.2889 145.699 20.2385 145.552 20.3234L145.375 20.426C145.228 20.5109 145.177 20.699 145.262 20.8462C145.319 20.9449 145.423 21 145.529 21C145.581 21 145.634 20.9867 145.682 20.9588L145.86 20.8562C146.007 20.7713 146.057 20.5831 145.972 20.436Z" fill="#27AE60"/>
<path d="M159.847 8.26555L159.67 8.16248C159.523 8.07721 159.335 8.12712 159.249 8.27396C159.164 8.42084 159.214 8.60914 159.361 8.69449L159.538 8.79753C159.587 8.82574 159.64 8.8392 159.692 8.8392C159.798 8.8392 159.901 8.78432 159.958 8.68608C160.044 8.53921 159.994 8.3509 159.847 8.26555Z" fill="#27AE60"/>
<path d="M148.709 1.78946L148.355 1.58385C148.209 1.49854 148.02 1.54837 147.935 1.69525C147.85 1.84209 147.9 2.03039 148.046 2.11574L148.4 2.32136C148.449 2.34962 148.502 2.36307 148.554 2.36307C148.66 2.36307 148.763 2.30823 148.82 2.21C148.906 2.06312 148.856 1.87482 148.709 1.78946Z" fill="#27AE60"/>
<path d="M147.295 0.96714L146.941 0.761528C146.794 0.676175 146.606 0.72605 146.521 0.872927C146.435 1.0198 146.485 1.20807 146.632 1.29342L146.986 1.49903C147.034 1.52729 147.087 1.54074 147.14 1.54074C147.246 1.54074 147.349 1.48591 147.406 1.38767C147.491 1.2408 147.441 1.05249 147.295 0.96714Z" fill="#27AE60"/>
<path d="M158.609 7.54578L158.255 7.34017C158.109 7.25486 157.921 7.30469 157.835 7.45157C157.75 7.59844 157.8 7.78675 157.947 7.8721L158.3 8.07771C158.349 8.10597 158.402 8.11942 158.454 8.11942C158.56 8.11942 158.663 8.06459 158.72 7.96635C158.806 7.81944 158.756 7.63113 158.609 7.54578Z" fill="#27AE60"/>
<path d="M157.195 6.72343L156.883 6.54222L157.121 6.40486C157.268 6.31996 157.318 6.13182 157.233 5.9847C157.148 5.83745 156.96 5.78708 156.813 5.87207L156.449 6.08227C156.393 6.11488 156.351 6.16283 156.325 6.21779L149.66 2.33861C149.659 2.33807 149.658 2.33775 149.657 2.33721C149.646 2.33102 149.635 2.32532 149.623 2.32044C149.623 2.32027 149.623 2.32015 149.622 2.31999C149.611 2.31556 149.6 2.31182 149.589 2.30863C149.586 2.30776 149.583 2.30698 149.579 2.30625C149.57 2.30399 149.561 2.30219 149.552 2.30075C149.549 2.30026 149.545 2.29964 149.542 2.29927C149.53 2.29788 149.518 2.29694 149.506 2.29694C149.506 2.29694 149.505 2.29694 149.505 2.29694C149.493 2.29694 149.481 2.29788 149.469 2.29927C149.466 2.29964 149.462 2.30026 149.459 2.30075C149.45 2.30219 149.441 2.30399 149.431 2.30625C149.428 2.30703 149.425 2.30772 149.422 2.30858C149.411 2.31187 149.399 2.3156 149.388 2.32019C149.388 2.32027 149.388 2.32032 149.388 2.3204C149.376 2.32532 149.364 2.33106 149.353 2.33738C149.353 2.33787 149.352 2.33816 149.351 2.33865L142.686 6.21775C142.661 6.16283 142.618 6.11488 142.562 6.08223L142.198 5.87203C142.051 5.78696 141.863 5.83749 141.778 5.98466C141.693 6.13178 141.744 6.31992 141.891 6.40482L142.128 6.54173L141.814 6.72335C141.667 6.8085 141.617 6.99672 141.702 7.14372C141.759 7.2422 141.862 7.2972 141.969 7.2972C142.021 7.2972 142.074 7.28387 142.122 7.25573L142.434 7.07494V7.86814C142.434 8.03807 142.572 8.17576 142.742 8.17576C142.912 8.17576 143.049 8.03807 143.049 7.86814V7.07399L149.018 10.5212C149.012 10.5834 149.024 10.6481 149.057 10.7065C149.091 10.7647 149.141 10.8073 149.198 10.8329V16.3755C149.198 16.5454 149.336 16.6831 149.505 16.6831C149.675 16.6831 149.813 16.5454 149.813 16.3755V10.8331C149.87 10.8076 149.92 10.7649 149.954 10.7064C149.988 10.648 150 10.5832 149.993 10.5209L155.961 7.07461C155.962 7.07416 155.961 7.07461 155.962 7.07416V11.792C155.962 11.9619 156.099 12.0996 156.269 12.0996C156.439 12.0996 156.577 11.9619 156.577 11.792V7.07567L156.886 7.25532C156.934 7.28358 156.987 7.29704 157.04 7.29704C157.146 7.29704 157.249 7.2422 157.306 7.14392C157.391 6.99705 157.341 6.80879 157.195 6.72343ZM149.506 10.0923L143.355 6.54034L149.218 3.14383L149.225 3.13989C149.273 3.24735 149.38 3.32233 149.505 3.32233C149.635 3.32233 149.745 3.24268 149.79 3.12984L149.814 3.14371C149.827 3.15105 149.84 3.15728 149.853 3.16261L150.844 3.73925C150.854 3.7468 150.864 3.75402 150.875 3.76046L151.229 3.96603C151.239 3.97202 151.249 3.97694 151.26 3.98161L152.262 4.56445C152.27 4.57097 152.28 4.57712 152.289 4.58278L152.643 4.78839C152.65 4.79266 152.658 4.79598 152.665 4.79955L153.684 5.39235C153.69 5.39674 153.697 5.40117 153.704 5.40515L154.057 5.61072C154.062 5.61318 154.066 5.6149 154.07 5.61716L155.11 6.2223C155.113 6.22398 155.115 6.22587 155.118 6.22747L155.472 6.43308C155.473 6.4339 155.474 6.43439 155.476 6.43521L155.656 6.54026L149.506 10.0923Z" fill="#27AE60"/>
<path d="M145.88 0.144816L145.703 0.0417438C145.556 -0.0436508 145.368 0.00626524 145.283 0.153142C145.197 0.299979 145.247 0.488282 145.394 0.573635L145.571 0.676708C145.62 0.704968 145.673 0.718421 145.726 0.718421C145.832 0.718421 145.935 0.663583 145.992 0.56535C146.077 0.418473 146.027 0.23017 145.88 0.144816Z" fill="#27AE60"/>
<path d="M139.751 8.27453C139.666 8.12749 139.478 8.07737 139.331 8.16252L139.153 8.2653C139.006 8.35045 138.956 8.53867 139.041 8.68567C139.098 8.78415 139.202 8.83915 139.308 8.83915C139.36 8.83915 139.413 8.82582 139.462 8.79768L139.639 8.6949C139.786 8.60975 139.836 8.42153 139.751 8.27453Z" fill="#27AE60"/>
<path d="M152.523 0.873086C152.438 0.726045 152.25 0.675923 152.103 0.761072L151.748 0.966643C151.601 1.05175 151.551 1.23997 151.636 1.38701C151.693 1.48549 151.796 1.54049 151.902 1.54049C151.955 1.54049 152.008 1.52716 152.056 1.49903L152.411 1.29346C152.558 1.20835 152.608 1.02013 152.523 0.873086Z" fill="#27AE60"/>
<path d="M151.104 1.69546C151.019 1.54842 150.831 1.4983 150.684 1.58344L150.329 1.78906C150.182 1.8742 150.132 2.06243 150.217 2.20943C150.274 2.3079 150.377 2.36291 150.483 2.36291C150.536 2.36291 150.589 2.34958 150.637 2.32144L150.992 2.11583C151.139 2.03068 151.189 1.84246 151.104 1.69546Z" fill="#27AE60"/>
<path d="M141.17 7.45217C141.085 7.30513 140.897 7.25501 140.75 7.34016L140.395 7.54577C140.248 7.63092 140.198 7.81914 140.283 7.96614C140.34 8.06466 140.443 8.11962 140.549 8.11962C140.602 8.11962 140.655 8.10629 140.703 8.07816L141.058 7.87254C141.205 7.78739 141.255 7.59917 141.17 7.45217Z" fill="#27AE60"/>
<path d="M153.765 0.153426C153.679 0.00642617 153.491 -0.043654 153.344 0.0414946L153.167 0.144321C153.02 0.22947 152.97 0.41769 153.055 0.564691C153.112 0.663128 153.215 0.71813 153.321 0.71813C153.374 0.71813 153.427 0.704759 153.475 0.676623L153.653 0.573796C153.8 0.488648 153.85 0.300427 153.765 0.153426Z" fill="#27AE60"/>
<path d="M149.505 8.85938C149.336 8.85938 149.198 8.99706 149.198 9.16699V9.57715C149.198 9.74708 149.336 9.88477 149.505 9.88477C149.675 9.88477 149.813 9.74708 149.813 9.57715V9.16699C149.813 8.99711 149.675 8.85938 149.505 8.85938Z" fill="#27AE60"/>
<path d="M149.505 3.93753C149.336 3.93753 149.198 4.07522 149.198 4.24515V4.65531C149.198 4.82523 149.336 4.96292 149.505 4.96292C149.675 4.96292 149.813 4.82523 149.813 4.65531V4.24515C149.813 4.07522 149.675 3.93753 149.505 3.93753Z" fill="#27AE60"/>
<path d="M149.505 5.57817C149.336 5.57817 149.198 5.71586 149.198 5.88579V6.29595C149.198 6.46587 149.336 6.60356 149.505 6.60356C149.675 6.60356 149.813 6.46587 149.813 6.29595V5.88579C149.813 5.71586 149.675 5.57817 149.505 5.57817Z" fill="#27AE60"/>
<path d="M149.505 7.2188C149.336 7.2188 149.198 7.35649 149.198 7.52641V7.93657C149.198 8.1065 149.336 8.24419 149.505 8.24419C149.675 8.24419 149.813 8.1065 149.813 7.93657V7.52641C149.813 7.35649 149.675 7.2188 149.505 7.2188Z" fill="#27AE60"/>
<mask id="mask0" mask-type="alpha" maskUnits="userSpaceOnUse" x="-1" y="0" width="316" height="78">
<path d="M225 19H0V77H314.5V0.5H225V19Z" fill="#C4C4C4" stroke="black"/>
</mask>
<g mask="url(#mask0)">
<path d="M17.024 23.616C21.5467 23.616 25.088 25.1307 27.648 28.16C30.208 31.1467 31.488 35.1147 31.488 40.064C31.488 45.056 30.208 49.024 27.648 51.968C25.088 54.912 21.5467 56.384 17.024 56.384C12.416 56.384 8.832 54.912 6.272 51.968C3.712 48.9813 2.432 45.0133 2.432 40.064C2.432 35.1147 3.712 31.1467 6.272 28.16C8.87467 25.1307 12.4587 23.616 17.024 23.616ZM17.024 54.016C20.7787 54.016 23.5947 52.7787 25.472 50.304C27.392 47.7867 28.352 44.3733 28.352 40.064C28.352 35.7973 27.392 32.4053 25.472 29.888C23.5947 27.328 20.7787 26.048 17.024 26.048C13.2267 26.048 10.368 27.3067 8.448 29.824C6.57067 32.2987 5.632 35.712 5.632 40.064C5.632 44.3733 6.57067 47.7867 8.448 50.304C10.3253 52.7787 13.184 54.016 17.024 54.016ZM66.5135 39.872C66.5135 43.0293 65.9588 45.8667 64.8495 48.384C63.7402 50.8587 62.1402 52.8213 60.0495 54.272C57.9588 55.68 55.5055 56.384 52.6895 56.384C50.5988 56.384 48.7428 56.0213 47.1215 55.296C45.5428 54.528 44.1562 53.3333 42.9615 51.712V64.704L46.2895 64.832C47.1428 64.9173 47.5695 65.3013 47.5695 65.984V67.264H35.2815V65.984C35.2815 65.3013 35.7082 64.9173 36.5615 64.832L39.8895 64.704V26.624L36.5615 26.496C35.7082 26.4107 35.2815 26.0267 35.2815 25.344V24.128H41.5535C41.9375 24.128 42.1935 24.192 42.3215 24.32C42.4495 24.4053 42.5135 24.5973 42.5135 24.896L42.8335 29.888C44.2842 27.9253 45.9695 26.3893 47.8895 25.28C49.8095 24.1707 51.8788 23.616 54.0975 23.616C58.2788 23.616 61.3935 25.0667 63.4415 27.968C65.4895 30.8693 66.5135 34.8373 66.5135 39.872ZM63.3775 39.872C63.3775 30.6987 60.0068 26.112 53.2655 26.112C49.1695 26.112 45.7348 28.1813 42.9615 32.32V49.024C45.1375 52.352 48.1668 54.016 52.0495 54.016C55.8042 54.016 58.6202 52.736 60.4975 50.176C62.4175 47.5733 63.3775 44.1387 63.3775 39.872ZM85.832 23.616C89.7147 23.616 92.7653 24.9173 94.984 27.52C97.2453 30.1227 98.376 33.4933 98.376 37.632C98.376 38.4427 98.0773 38.848 97.48 38.848H74.504C74.504 43.584 75.4853 47.296 77.448 49.984C79.4107 52.672 82.3547 54.016 86.28 54.016C87.8587 54.016 89.5013 53.7387 91.208 53.184C92.9573 52.6293 94.3227 51.9253 95.304 51.072C95.6453 50.7307 95.9867 50.56 96.328 50.56C96.6267 50.56 96.84 50.6667 96.968 50.88L97.8 51.904C96.6907 53.2693 94.984 54.3573 92.68 55.168C90.4187 55.9787 88.2 56.384 86.024 56.384C81.288 56.384 77.6613 54.8267 75.144 51.712C72.6693 48.5547 71.432 44.4587 71.432 39.424C71.432 36.3947 72.008 33.6853 73.16 31.296C74.3547 28.9067 76.04 27.0293 78.216 25.664C80.392 24.2987 82.9307 23.616 85.832 23.616ZM85.896 25.92C82.6533 25.92 80.0507 26.9013 78.088 28.864C76.168 30.784 75.016 33.4507 74.632 36.864H95.624C95.624 33.536 94.728 30.8907 92.936 28.928C91.1867 26.9227 88.84 25.92 85.896 25.92ZM137.101 53.568C137.954 53.6533 138.381 54.0373 138.381 54.72V56H130.701V35.648C130.701 32.6613 130.018 30.336 128.653 28.672C127.287 26.9653 125.197 26.112 122.381 26.112C118.327 26.112 114.786 28.1173 111.757 32.128V53.44L115.149 53.568C115.959 53.6107 116.365 53.9947 116.365 54.72V56H104.141V54.72C104.141 53.9947 104.546 53.6107 105.357 53.568L108.749 53.44V26.624L105.293 26.496C104.866 26.4533 104.546 26.3467 104.333 26.176C104.162 26.0053 104.077 25.728 104.077 25.344V24.128H110.413C111.01 24.128 111.33 24.384 111.373 24.896L111.629 29.76C114.829 25.7067 118.669 23.68 123.149 23.68C126.605 23.68 129.229 24.7467 131.021 26.88C132.855 29.0133 133.773 31.936 133.773 35.648V53.44L137.101 53.568ZM150.407 16C149.596 16 148.913 15.7227 148.359 15.168C147.847 14.6133 147.591 13.9307 147.591 13.12C147.591 12.352 147.847 11.712 148.359 11.2C148.913 10.6453 149.596 10.368 150.407 10.368C151.175 10.368 151.815 10.6453 152.327 11.2C152.881 11.712 153.159 12.352 153.159 13.12C153.159 13.9307 152.881 14.6133 152.327 15.168C151.815 15.7227 151.175 16 150.407 16ZM155.271 53.568C156.124 53.6533 156.551 54.0373 156.551 54.72V56H144.263V54.72C144.263 54.0373 144.689 53.6533 145.543 53.568L148.871 53.44V26.688L145.543 26.56C144.689 26.4747 144.263 26.0907 144.263 25.408V24.128H151.943V53.44L155.271 53.568ZM195.413 53.568C196.266 53.6533 196.693 54.0373 196.693 54.72V56H189.013V35.648C189.013 32.6613 188.33 30.336 186.965 28.672C185.6 26.9653 183.509 26.112 180.693 26.112C176.64 26.112 173.098 28.1173 170.069 32.128V53.44L173.461 53.568C174.272 53.6107 174.677 53.9947 174.677 54.72V56H162.453V54.72C162.453 53.9947 162.858 53.6107 163.669 53.568L167.061 53.44V26.624L163.605 26.496C163.178 26.4533 162.858 26.3467 162.645 26.176C162.474 26.0053 162.389 25.728 162.389 25.344V24.128H168.725C169.322 24.128 169.642 24.384 169.685 24.896L169.941 29.76C173.141 25.7067 176.981 23.68 181.461 23.68C184.917 23.68 187.541 24.7467 189.333 26.88C191.168 29.0133 192.085 31.936 192.085 35.648V53.44L195.413 53.568ZM226.383 51.904C225.188 53.3973 223.588 54.528 221.583 55.296C219.62 56.064 217.594 56.448 215.503 56.448C212.687 56.448 210.234 55.744 208.143 54.336C206.095 52.8853 204.516 50.9227 203.407 48.448C202.34 45.9733 201.807 43.1787 201.807 40.064C201.807 36.864 202.362 34.0267 203.471 31.552C204.58 29.0773 206.223 27.1573 208.399 25.792C210.575 24.384 213.178 23.68 216.207 23.68C218.895 23.68 221.882 24.3413 225.167 25.664V33.664H223.631C222.778 33.664 222.308 33.152 222.223 32.128C222.223 32 222.18 31.5093 222.095 30.656C222.01 29.76 221.924 28.5867 221.839 27.136C219.748 26.4107 217.935 26.048 216.399 26.048C212.687 26.048 209.85 27.328 207.887 29.888C205.924 32.448 204.943 35.84 204.943 40.064C204.943 44.2453 205.903 47.616 207.823 50.176C209.743 52.736 212.452 54.016 215.951 54.016C217.487 54.016 219.002 53.7387 220.495 53.184C221.988 52.6293 223.162 51.9253 224.015 51.072C224.356 50.7307 224.676 50.56 224.975 50.56C225.231 50.56 225.423 50.6667 225.551 50.88L226.383 51.904ZM238.094 16C237.283 16 236.601 15.7227 236.046 15.168C235.534 14.6133 235.278 13.9307 235.278 13.12C235.278 12.352 235.534 11.712 236.046 11.2C236.601 10.6453 237.283 10.368 238.094 10.368C238.862 10.368 239.502 10.6453 240.014 11.2C240.569 11.712 240.846 12.352 240.846 13.12C240.846 13.9307 240.569 14.6133 240.014 15.168C239.502 15.7227 238.862 16 238.094 16ZM242.958 53.568C243.811 53.6533 244.238 54.0373 244.238 54.72V56H231.95V54.72C231.95 54.0373 232.377 53.6533 233.23 53.568L236.558 53.44V26.688L233.23 26.56C232.377 26.4747 231.95 26.0907 231.95 25.408V24.128H239.63V53.44L242.958 53.568ZM260.125 56.512C257.863 56.512 256.157 55.8933 255.005 54.656C253.853 53.376 253.277 51.5627 253.277 49.216V27.456H248.733C248.477 27.456 248.263 27.392 248.093 27.264C247.965 27.136 247.901 26.944 247.901 26.688V25.536L253.341 25.152L254.109 13.76C254.109 13.5893 254.173 13.4187 254.301 13.248C254.471 13.0773 254.663 12.992 254.877 12.992H256.349V25.152H266.397V27.456H256.349V49.024C256.349 50.6027 256.733 51.84 257.501 52.736C258.311 53.5893 259.399 54.016 260.765 54.016C262.045 54.016 263.495 53.4187 265.117 52.224C265.373 52.096 265.565 52.032 265.693 52.032C265.991 52.032 266.226 52.16 266.397 52.416L267.101 53.568C266.29 54.464 265.223 55.1893 263.901 55.744C262.621 56.256 261.362 56.512 260.125 56.512ZM286.395 23.616C290.277 23.616 293.328 24.9173 295.547 27.52C297.808 30.1227 298.939 33.4933 298.939 37.632C298.939 38.4427 298.64 38.848 298.043 38.848H275.067C275.067 43.584 276.048 47.296 278.01 49.984C279.973 52.672 282.917 54.016 286.843 54.016C288.421 54.016 290.064 53.7387 291.771 53.184C293.52 52.6293 294.885 51.9253 295.867 51.072C296.208 50.7307 296.549 50.56 296.891 50.56C297.189 50.56 297.403 50.6667 297.531 50.88L298.363 51.904C297.253 53.2693 295.547 54.3573 293.243 55.168C290.981 55.9787 288.763 56.384 286.587 56.384C281.851 56.384 278.224 54.8267 275.707 51.712C273.232 48.5547 271.995 44.4587 271.995 39.424C271.995 36.3947 272.571 33.6853 273.723 31.296C274.917 28.9067 276.603 27.0293 278.779 25.664C280.955 24.2987 283.493 23.616 286.395 23.616ZM286.458 25.92C283.216 25.92 280.613 26.9013 278.651 28.864C276.731 30.784 275.579 33.4507 275.195 36.864H296.187C296.187 33.536 295.291 30.8907 293.499 28.928C291.749 26.9227 289.403 25.92 286.458 25.92Z" fill="black"/>
</g>
</svg>
