<svg width="1365" height="374" viewBox="0 0 1365 374" fill="none" xmlns="http://www.w3.org/2000/svg">
<path d="M615.984 33.7379L614.623 32.9518C613.496 32.2999 612.054 32.6873 611.403 33.815C610.753 34.9432 611.139 36.3856 612.266 37.0365L613.627 37.8227C613.999 38.0374 614.404 38.139 614.804 38.139C615.618 38.139 616.411 37.7157 616.847 36.9595C617.498 35.8312 617.111 34.3888 615.984 33.7379Z" fill="#F39200"/>
<path d="M627.146 40.1841L624.356 38.5726C623.229 37.9204 621.787 38.3078 621.136 39.4361C620.485 40.564 620.872 42.0064 621.999 42.6573L624.79 44.2689C625.161 44.4837 625.566 44.5852 625.966 44.5852C626.781 44.5852 627.573 44.162 628.01 43.4054C628.66 42.2775 628.274 40.8351 627.146 40.1841Z" fill="#F39200"/>
<path d="M716.441 91.7539L713.651 90.1423C712.523 89.4902 711.081 89.8776 710.431 91.0058C709.78 92.1338 710.166 93.5762 711.294 94.2271L714.084 95.8387C714.456 96.0534 714.861 96.155 715.261 96.155C716.075 96.155 716.867 95.7318 717.304 94.9752C717.955 93.8472 717.569 92.4048 716.441 91.7539Z" fill="#F39200"/>
<path d="M738.765 104.646L735.974 103.035C734.847 102.383 733.405 102.77 732.754 103.898C732.103 105.026 732.49 106.469 733.618 107.12L736.408 108.731C736.779 108.946 737.184 109.048 737.584 109.048C738.399 109.048 739.191 108.624 739.628 107.868C740.279 106.74 739.893 105.297 738.765 104.646Z" fill="#F39200"/>
<path d="M727.603 98.2001L724.812 96.5886C723.685 95.9364 722.244 96.3235 721.592 97.4521C720.941 98.58 721.328 100.022 722.456 100.673L725.246 102.285C725.617 102.5 726.022 102.601 726.422 102.601C727.237 102.601 728.029 102.178 728.466 101.421C729.117 100.293 728.73 98.8511 727.603 98.2001Z" fill="#F39200"/>
<path d="M705.279 85.3076L702.489 83.696C701.361 83.0439 699.92 83.4313 699.269 84.5595C698.618 85.6875 699.004 87.1299 700.132 87.7808L702.922 89.3924C703.293 89.6072 703.699 89.7087 704.099 89.7087C704.913 89.7087 705.706 89.2855 706.142 88.5289C706.793 87.401 706.407 85.9586 705.279 85.3076Z" fill="#F39200"/>
<path d="M761.089 117.539L758.298 115.927C757.17 115.275 755.729 115.662 755.078 116.791C754.427 117.919 754.814 119.361 755.941 120.012L758.732 121.624C759.103 121.838 759.508 121.94 759.908 121.94C760.723 121.94 761.515 121.517 761.952 120.76C762.603 119.632 762.216 118.19 761.089 117.539Z" fill="#F39200"/>
<path d="M770.821 123.16L769.46 122.374C768.332 121.721 766.891 122.109 766.24 123.237C765.589 124.365 765.976 125.807 767.103 126.458L768.464 127.244C768.835 127.459 769.24 127.561 769.64 127.561C770.455 127.561 771.247 127.137 771.684 126.381C772.335 125.253 771.949 123.811 770.821 123.16Z" fill="#F39200"/>
<path d="M615.984 94.6713L614.623 93.8855C613.495 93.2343 612.054 93.6214 611.403 94.7493C610.753 95.8776 611.139 97.32 612.267 97.9709L613.628 98.7567C613.999 98.9711 614.404 99.0727 614.804 99.0727C615.618 99.0727 616.411 98.6495 616.847 97.8929C617.498 96.7649 617.111 95.3225 615.984 94.6713Z" fill="#F39200"/>
<path d="M702.85 144.838L700.136 143.271C699.008 142.62 697.567 143.006 696.916 144.135C696.265 145.263 696.652 146.705 697.779 147.356L700.494 148.924C700.865 149.138 701.27 149.24 701.67 149.24C702.484 149.24 703.277 148.816 703.714 148.06C704.364 146.932 703.978 145.49 702.85 144.838Z" fill="#F39200"/>
<path d="M713.708 151.109L710.994 149.542C709.867 148.891 708.425 149.277 707.774 150.405C707.123 151.533 707.51 152.976 708.638 153.627L711.352 155.194C711.723 155.409 712.128 155.511 712.528 155.511C713.342 155.511 714.135 155.087 714.572 154.331C715.223 153.203 714.836 151.76 713.708 151.109Z" fill="#F39200"/>
<path d="M626.842 100.942L624.128 99.3747C623.001 98.7237 621.559 99.1102 620.908 100.238C620.257 101.366 620.644 102.808 621.771 103.46L624.486 105.028C624.857 105.242 625.262 105.344 625.662 105.344C626.476 105.344 627.269 104.92 627.705 104.164C628.356 103.036 627.97 101.593 626.842 100.942Z" fill="#F39200"/>
<path d="M723.213 156.599L721.852 155.813C720.725 155.162 719.283 155.548 718.633 156.676C717.982 157.804 718.368 159.246 719.495 159.898L720.856 160.684C721.227 160.898 721.633 161 722.033 161C722.847 161 723.64 160.577 724.076 159.82C724.727 158.693 724.341 157.25 723.213 156.599Z" fill="#F39200"/>
<path d="M771.684 33.815C771.033 32.6867 769.591 32.3012 768.464 32.9518L767.103 33.738C765.976 34.3889 765.589 35.8313 766.24 36.9595C766.677 37.7161 767.469 38.1391 768.284 38.1391C768.684 38.1391 769.089 38.0372 769.46 37.8227L770.821 37.0366C771.948 36.3857 772.335 34.9433 771.684 33.815Z" fill="#F39200"/>
<path d="M661.495 97.4521C660.844 96.3236 659.403 95.9371 658.275 96.5886L655.485 98.2002C654.358 98.8511 653.971 100.294 654.622 101.421C655.058 102.178 655.85 102.601 656.665 102.601C657.065 102.601 657.47 102.499 657.841 102.285L660.632 100.673C661.759 100.022 662.146 98.5801 661.495 97.4521Z" fill="#F39200"/>
<path d="M650.333 103.898C649.682 102.77 648.241 102.383 647.113 103.035L644.323 104.646C643.196 105.297 642.809 106.74 643.46 107.868C643.896 108.625 644.688 109.048 645.503 109.048C645.903 109.048 646.308 108.946 646.68 108.731L649.47 107.12C650.597 106.469 650.984 105.026 650.333 103.898Z" fill="#F39200"/>
<path d="M628.009 116.791C627.358 115.662 625.917 115.276 624.789 115.927L621.999 117.539C620.871 118.19 620.485 119.632 621.136 120.76C621.572 121.517 622.364 121.94 623.179 121.94C623.579 121.94 623.984 121.838 624.356 121.623L627.146 120.012C628.273 119.361 628.66 117.919 628.009 116.791Z" fill="#F39200"/>
<path d="M761.952 39.4362C761.3 38.3076 759.859 37.9215 758.732 38.5727L755.941 40.1843C754.814 40.8352 754.427 42.2776 755.078 43.4055C755.515 44.1624 756.307 44.5853 757.122 44.5853C757.521 44.5853 757.927 44.4835 758.298 44.269L761.088 42.6574C762.216 42.0065 762.602 40.5641 761.952 39.4362Z" fill="#F39200"/>
<path d="M672.657 91.0059C672.006 89.8776 670.564 89.4912 669.437 90.1424L666.647 91.754C665.519 92.4049 665.133 93.8473 665.784 94.9752C666.22 95.7321 667.012 96.155 667.827 96.155C668.227 96.155 668.632 96.0531 669.003 95.8387L671.794 94.2271C672.921 93.5762 673.307 92.1338 672.657 91.0059Z" fill="#F39200"/>
<path d="M683.819 84.5596C683.168 83.431 681.726 83.0445 680.599 83.6961L677.809 85.3077C676.681 85.9586 676.295 87.401 676.945 88.5289C677.382 89.2861 678.174 89.7088 678.989 89.7088C679.388 89.7088 679.794 89.6069 680.165 89.3924L682.956 87.7808C684.083 87.1299 684.469 85.6875 683.819 84.5596Z" fill="#F39200"/>
<path d="M616.847 123.237C616.196 122.108 614.754 121.722 613.628 122.373L612.267 123.16C611.139 123.81 610.753 125.253 611.404 126.381C611.84 127.138 612.633 127.561 613.447 127.561C613.847 127.561 614.252 127.459 614.623 127.244L615.984 126.458C617.112 125.807 617.498 124.365 616.847 123.237Z" fill="#F39200"/>
<path d="M771.684 94.7493C771.033 93.6214 769.591 93.2343 768.464 93.8855L767.103 94.6713C765.976 95.3222 765.589 96.7646 766.24 97.8929C766.676 98.6498 767.469 99.0727 768.283 99.0727C768.683 99.0727 769.088 98.9711 769.46 98.7567L770.82 97.9709C771.948 97.32 772.334 95.8776 771.684 94.7493Z" fill="#F39200"/>
<path d="M675.313 150.405C674.662 149.277 673.22 148.891 672.093 149.542L669.379 151.109C668.251 151.76 667.865 153.203 668.516 154.331C668.952 155.088 669.745 155.511 670.559 155.511C670.959 155.511 671.364 155.409 671.735 155.195L674.45 153.627C675.577 152.976 675.964 151.533 675.313 150.405Z" fill="#F39200"/>
<path d="M749.926 111.092L749.013 110.565L750.457 109.731C751.585 109.08 751.971 107.638 751.321 106.509C750.67 105.381 749.228 104.994 748.101 105.645L745.755 107V100.625C745.755 99.3221 744.699 98.2665 743.398 98.2665C742.096 98.2665 741.04 99.3221 741.04 100.625V109.723L737.244 111.915C737.244 111.916 737.243 111.916 737.243 111.916L734.528 113.484C734.528 113.484 734.528 113.484 734.527 113.484L693.898 136.947V135.843C693.898 134.541 692.843 133.485 691.541 133.485C690.239 133.485 689.184 134.541 689.184 135.843V136.947L642.044 109.723V70.3327C642.044 69.0299 640.989 67.9743 639.687 67.9743C638.385 67.9743 637.33 69.0299 637.33 70.3327V106.999L634.986 105.645C633.858 104.994 632.417 105.381 631.766 106.509C631.115 107.637 631.502 109.079 632.629 109.731L634.073 110.565L633.16 111.092C632.033 111.743 631.646 113.185 632.297 114.313C632.733 115.07 633.526 115.493 634.341 115.493C634.741 115.493 635.146 115.391 635.517 115.177L638.307 113.565C638.462 113.476 638.602 113.37 638.728 113.254L690.363 143.074C690.365 143.075 690.367 143.075 690.368 143.076C690.436 143.115 690.507 143.148 690.578 143.18C690.602 143.19 690.624 143.204 690.648 143.213C690.711 143.239 690.775 143.258 690.84 143.278C690.873 143.289 690.906 143.302 690.94 143.312C691.006 143.329 691.073 143.339 691.141 143.351C691.173 143.357 691.206 143.366 691.239 143.37C691.339 143.383 691.442 143.39 691.544 143.39C691.845 143.39 692.149 143.332 692.439 143.212C692.493 143.19 692.544 143.161 692.596 143.135C692.638 143.114 692.679 143.097 692.72 143.074L693.443 142.657C693.446 142.655 693.449 142.654 693.452 142.652L696.166 141.085C696.17 141.082 696.173 141.08 696.177 141.078L704.303 136.384C704.306 136.384 704.308 136.383 704.31 136.381L707.024 134.813C707.026 134.813 707.027 134.812 707.029 134.811L715.164 130.113C715.165 130.112 715.167 130.111 715.168 130.111L717.882 128.543C717.883 128.543 717.883 128.542 717.883 128.542L726.024 123.841C726.024 123.841 726.025 123.841 726.026 123.84L728.741 122.273C728.742 122.272 728.743 122.271 728.744 122.271L744.358 113.254C744.484 113.37 744.624 113.476 744.779 113.566L747.569 115.177C747.94 115.392 748.346 115.493 748.745 115.493C749.56 115.493 750.352 115.07 750.789 114.314C751.44 113.186 751.054 111.743 749.926 111.092Z" fill="#F39200"/>
<path d="M686.171 144.134C685.521 143.007 684.079 142.619 682.952 143.27L680.237 144.838C679.11 145.489 678.723 146.931 679.374 148.06C679.81 148.816 680.603 149.239 681.418 149.239C681.817 149.239 682.223 149.138 682.594 148.923L685.308 147.356C686.436 146.705 686.822 145.262 686.171 144.134Z" fill="#F39200"/>
<path d="M762.179 100.238C761.528 99.1096 760.087 98.724 758.96 99.3743L756.245 100.942C755.118 101.593 754.731 103.036 755.382 104.163C755.819 104.92 756.611 105.343 757.426 105.343C757.825 105.343 758.231 105.241 758.602 105.027L761.316 103.46C762.443 102.808 762.83 101.366 762.179 100.238Z" fill="#F39200"/>
<path d="M664.455 156.676C663.804 155.548 662.362 155.162 661.235 155.813L659.874 156.599C658.747 157.25 658.36 158.692 659.011 159.82C659.448 160.577 660.24 161 661.055 161C661.455 161 661.86 160.898 662.231 160.684L663.592 159.897C664.719 159.246 665.106 157.804 664.455 156.676Z" fill="#F39200"/>
<path d="M770.826 63.3691L769.468 62.5789C768.343 61.9251 766.9 62.3078 766.245 63.4336C765.591 64.5596 765.974 66.0033 767.1 66.6577L768.458 67.4476C768.831 67.6639 769.238 67.7671 769.64 67.7671C770.453 67.7671 771.243 67.3463 771.681 66.5932C772.335 65.4671 771.952 64.0235 770.826 63.3691Z" fill="#F39200"/>
<path d="M685.436 13.7192L682.725 12.1428C681.6 11.4888 680.157 11.8708 679.503 12.9969C678.848 14.1226 679.23 15.5663 680.356 16.2207L683.067 17.797C683.439 18.0137 683.847 18.1168 684.249 18.1168C685.061 18.1168 685.851 17.6964 686.289 16.9433C686.943 15.8172 686.561 14.3736 685.436 13.7192Z" fill="#F39200"/>
<path d="M674.593 7.41472L671.882 5.83837C670.757 5.18399 669.314 5.56637 668.66 6.69242C668.005 7.81848 668.387 9.26182 669.513 9.91619L672.224 11.4925C672.596 11.7092 673.004 11.8123 673.406 11.8123C674.218 11.8123 675.008 11.3919 675.446 10.6388C676.1 9.51275 675.718 8.0691 674.593 7.41472Z" fill="#F39200"/>
<path d="M761.336 57.8509L758.625 56.2745C757.5 55.6205 756.057 56.0025 755.403 57.1286C754.749 58.2546 755.131 59.6983 756.257 60.3527L758.967 61.929C759.34 62.1457 759.747 62.2488 760.15 62.2488C760.962 62.2488 761.752 61.8284 762.19 61.0753C762.844 59.9489 762.462 58.5053 761.336 57.8509Z" fill="#F39200"/>
<path d="M750.493 51.5462L748.103 50.157L749.926 49.1039C751.054 48.4529 751.44 47.0105 750.789 45.8826C750.138 44.7537 748.697 44.3676 747.569 45.0191L744.779 46.6307C744.346 46.8807 744.023 47.2483 743.826 47.6696L692.727 17.9293C692.72 17.9252 692.712 17.9227 692.705 17.9186C692.622 17.8711 692.536 17.8274 692.446 17.79C692.443 17.7887 692.44 17.7878 692.437 17.7865C692.354 17.7526 692.267 17.724 692.18 17.6994C692.156 17.6928 692.133 17.6869 692.109 17.6812C692.04 17.6639 691.969 17.6501 691.897 17.6391C691.872 17.6353 691.848 17.6306 691.823 17.6277C691.732 17.617 691.641 17.6098 691.547 17.6098C691.544 17.6098 691.54 17.6098 691.537 17.6098C691.444 17.6098 691.352 17.617 691.261 17.6277C691.236 17.6306 691.212 17.6353 691.187 17.6391C691.115 17.6501 691.044 17.6639 690.974 17.6812C690.95 17.6872 690.927 17.6925 690.904 17.6991C690.815 17.7243 690.727 17.7529 690.643 17.7881C690.641 17.7887 690.639 17.7891 690.638 17.7897C690.547 17.8274 690.46 17.8714 690.376 17.9199C690.37 17.9236 690.363 17.9258 690.356 17.9296L639.262 47.6693C639.064 47.2483 638.741 46.8807 638.308 46.6304L635.518 45.0188C634.39 44.3666 632.949 44.754 632.298 45.8823C631.647 47.0102 632.034 48.4526 633.161 49.1036L634.979 50.1532L632.576 51.5456C631.449 52.1984 631.065 53.6414 631.717 54.7684C632.154 55.5234 632.946 55.9451 633.759 55.9451C634.16 55.9451 634.566 55.8429 634.938 55.6272L637.33 54.2411V60.3223C637.33 61.6251 638.385 62.6807 639.687 62.6807C640.989 62.6807 642.044 61.6251 642.044 60.3223V54.2338L687.806 80.6624C687.757 81.1394 687.849 81.6356 688.107 82.0828C688.364 82.5293 688.747 82.856 689.185 83.0519V125.545C689.185 126.848 690.24 127.904 691.542 127.904C692.843 127.904 693.899 126.848 693.899 125.545V83.0535C694.337 82.8579 694.722 82.5305 694.981 82.0824C695.239 81.6347 695.331 81.1378 695.281 80.6602L741.035 54.2386C741.041 54.2351 741.035 54.2386 741.041 54.2351V90.4051C741.041 91.7079 742.096 92.7635 743.398 92.7635C744.7 92.7635 745.755 91.7079 745.755 90.4051V54.2467L748.124 55.624C748.497 55.8407 748.904 55.9438 749.306 55.9438C750.118 55.9438 750.909 55.5234 751.346 54.77C752 53.6439 751.618 52.2006 750.493 51.5462ZM691.542 77.3741L644.389 50.1425L689.338 24.1026L689.39 24.0725C689.757 24.8963 690.582 25.4711 691.542 25.4711C692.531 25.4711 693.377 24.8605 693.726 23.9954L693.909 24.1017C694.006 24.158 694.105 24.2058 694.205 24.2467L701.802 28.6676C701.878 28.7254 701.957 28.7808 702.042 28.8301L704.753 30.4062C704.831 30.4521 704.912 30.4898 704.994 30.5257L712.672 34.994C712.74 35.044 712.81 35.0912 712.885 35.1346L715.596 36.711C715.652 36.7437 715.711 36.7691 715.769 36.7965L723.577 41.3413C723.626 41.3749 723.676 41.4089 723.728 41.4394L726.439 43.0154C726.471 43.0343 726.506 43.0475 726.539 43.0648L734.51 47.7042C734.531 47.7171 734.55 47.7316 734.571 47.7439L737.282 49.3202C737.292 49.3265 737.304 49.3303 737.314 49.3366L738.698 50.1419L691.542 77.3741Z" fill="#F39200"/>
<path d="M663.75 1.11025L662.391 0.32003C661.266 -0.334661 659.823 0.0480284 659.169 1.17409C658.514 2.29983 658.896 3.74348 660.022 4.39786L661.381 5.18808C661.753 5.40474 662.161 5.50788 662.563 5.50788C663.375 5.50788 664.165 5.08745 664.603 4.33434C665.257 3.20828 664.875 1.76463 663.75 1.11025Z" fill="#F39200"/>
<path d="M616.757 63.4379C616.104 62.3106 614.662 61.9264 613.536 62.5792L612.176 63.3672C611.049 64.02 610.666 65.463 611.318 66.59C611.755 67.345 612.546 67.7667 613.359 67.7667C613.76 67.7667 614.167 67.6645 614.539 67.4488L615.898 66.6608C617.025 66.008 617.409 64.5649 616.757 63.4379Z" fill="#F39200"/>
<path d="M714.675 6.69365C714.023 5.56634 712.581 5.18207 711.454 5.83488L708.734 7.41092C707.608 8.06341 707.224 9.50644 707.876 10.6338C708.313 11.3888 709.105 11.8104 709.918 11.8104C710.319 11.8104 710.725 11.7082 711.097 11.4925L713.817 9.91648C714.943 9.26399 715.328 7.82097 714.675 6.69365Z" fill="#F39200"/>
<path d="M703.796 12.9985C703.143 11.8712 701.701 11.4869 700.575 12.1397L697.855 13.7161C696.729 14.3689 696.344 15.8119 696.997 16.9389C697.433 17.6939 698.225 18.1156 699.038 18.1156C699.439 18.1156 699.845 18.0134 700.217 17.7977L702.937 16.2213C704.064 15.5685 704.448 14.1255 703.796 12.9985Z" fill="#F39200"/>
<path d="M627.637 57.1332C626.984 56.0059 625.542 55.6216 624.416 56.2744L621.696 57.8508C620.569 58.5036 620.185 59.9466 620.837 61.0736C621.274 61.829 622.066 62.2503 622.879 62.2503C623.28 62.2503 623.686 62.1481 624.058 61.9324L626.778 60.3561C627.905 59.7032 628.289 58.2602 627.637 57.1332Z" fill="#F39200"/>
<path d="M724.195 1.17627C723.543 0.0492672 722.1 -0.33468 720.974 0.318125L719.615 1.10646C718.488 1.75926 718.104 3.20229 718.757 4.32929C719.194 5.08398 719.985 5.50566 720.798 5.50566C721.199 5.50566 721.606 5.40315 721.978 5.18743L723.337 4.3991C724.464 3.74629 724.848 2.30327 724.195 1.17627Z" fill="#F39200"/>
<path d="M691.542 67.9218C690.24 67.9218 689.185 68.9774 689.185 70.2802V73.4247C689.185 74.7275 690.24 75.7831 691.542 75.7831C692.844 75.7831 693.899 74.7275 693.899 73.4247V70.2802C693.899 68.9777 692.844 67.9218 691.542 67.9218Z" fill="#F39200"/>
<path d="M691.542 30.1877C690.24 30.1877 689.185 31.2433 689.185 32.5461V35.6906C689.185 36.9934 690.24 38.049 691.542 38.049C692.844 38.049 693.899 36.9934 693.899 35.6906V32.5461C693.899 31.2433 692.844 30.1877 691.542 30.1877Z" fill="#F39200"/>
<path d="M691.542 42.7659C690.24 42.7659 689.185 43.8215 689.185 45.1243V48.2688C689.185 49.5716 690.24 50.6272 691.542 50.6272C692.844 50.6272 693.899 49.5716 693.899 48.2688V45.1243C693.899 43.8215 692.844 42.7659 691.542 42.7659Z" fill="#F39200"/>
<path d="M691.542 55.344C690.24 55.344 689.185 56.3996 689.185 57.7024V60.8469C689.185 62.1497 690.24 63.2053 691.542 63.2053C692.844 63.2053 693.899 62.1497 693.899 60.8469V57.7024C693.899 56.3996 692.844 55.344 691.542 55.344Z" fill="#F39200"/>
<mask id="mask0" mask-type="alpha" maskUnits="userSpaceOnUse" x="-1" y="89" width="1386" height="302">
<path d="M1052.44 171.029H0V390H1384V171.029H1194.82V90H1052.44V171.029Z" fill="#C4C4C4" stroke="black"/>
</mask>
<g mask="url(#mask0)">
<path d="M83.032 175.968C93.592 175.968 103.192 177.696 111.832 181.152C120.28 184.608 127.672 189.6 134.008 196.128C139.96 202.272 144.568 210.144 147.832 219.744C151.096 229.152 152.728 239.52 152.728 250.848C152.728 262.176 151.096 272.544 147.832 281.952C144.568 291.552 139.96 299.424 134.008 305.568C127.672 312.096 120.28 317.088 111.832 320.544C103.192 324 93.592 325.728 83.032 325.728C72.472 325.728 62.872 324 54.232 320.544C45.784 317.088 38.392 312.096 32.056 305.568C26.296 299.616 21.592 291.744 17.944 281.952C14.872 273.696 13.336 263.328 13.336 250.848C13.336 238.368 14.872 228 17.944 219.744C21.592 209.952 26.296 202.08 32.056 196.128C38.392 189.6 45.784 184.608 54.232 181.152C62.872 177.696 72.472 175.968 83.032 175.968ZM83.032 306.144C97.816 306.144 108.568 301.344 115.288 291.744C122.392 281.76 125.944 268.224 125.944 251.136C125.944 234.048 122.392 220.512 115.288 210.528C108.568 200.928 97.816 196.128 83.032 196.128C75.544 196.128 69.208 197.28 64.024 199.584C59.032 201.888 54.616 205.536 50.776 210.528C47.128 215.52 44.44 221.28 42.712 227.808C40.792 235.488 39.832 243.36 39.832 251.424C39.832 259.104 40.792 266.784 42.712 274.464C44.44 280.992 47.128 286.752 50.776 291.744C54.04 296.16 58.456 299.616 64.024 302.112C70.168 304.8 76.504 306.144 83.032 306.144ZM208.692 200.736C222.708 183.84 239.028 175.392 257.652 175.392C274.74 175.392 288.18 181.728 297.972 194.4C307.956 207.84 312.948 226.464 312.948 250.272C312.948 272.16 307.38 290.112 296.244 304.128C284.532 318.72 269.748 326.016 251.892 326.016C234.036 326.016 220.02 320.352 209.844 309.024V352.224L217.62 353.952L225.972 355.68C229.044 356.256 230.58 358.08 230.58 361.152V373.536H163.188V361.152C163.188 358.08 164.724 356.256 167.796 355.68L183.924 352.512V199.296C175.092 197.568 169.716 196.416 167.796 195.84C164.724 195.264 163.188 193.44 163.188 190.368V178.272H199.476C202.932 178.272 205.236 180 206.388 183.456L208.404 200.736H208.692ZM209.844 288.864C218.484 300.384 229.62 306.144 243.252 306.144C257.46 306.144 268.212 301.344 275.508 291.744C282.804 282.144 286.452 268.32 286.452 250.272C286.452 232.416 283.284 218.976 276.948 209.952C270.612 200.736 261.3 196.128 249.012 196.128C233.844 196.128 220.788 203.52 209.844 218.304V288.864ZM400.516 175.968C408.964 175.968 416.932 177.408 424.42 180.288C432.1 183.168 438.436 187.296 443.428 192.672C449.188 198.816 453.412 205.632 456.1 213.12C459.172 221.76 460.708 230.976 460.708 240.768C460.708 245.184 460.324 247.872 459.556 248.832C458.596 250.176 456.868 250.848 454.372 250.848H357.604C357.604 260.064 358.756 268.128 361.06 275.04C362.98 280.992 366.244 286.56 370.852 291.744C375.076 296.544 379.876 300 385.252 302.112C391.012 304.416 397.156 305.568 403.684 305.568C410.596 305.568 416.164 304.896 420.388 303.552C424.42 302.208 428.452 300.576 432.484 298.656C436.708 296.544 439.588 295.008 441.124 294.048C443.62 292.512 445.54 291.744 446.884 291.744C448.996 291.744 450.628 292.608 451.78 294.336L458.98 303.84C456.292 307.296 452.452 310.56 447.46 313.632C441.7 317.28 436.996 319.68 433.348 320.832C427.588 322.752 422.404 324.096 417.796 324.864C412.036 325.824 406.756 326.304 401.956 326.304C391.972 326.304 382.66 324.576 374.02 321.12C365.764 317.856 358.372 312.768 351.844 305.856C345.7 299.52 340.9 291.36 337.444 281.376C333.988 271.584 332.26 260.448 332.26 247.968C332.26 237.984 333.892 228.576 337.156 219.744C340.42 210.72 344.932 203.04 350.692 196.704C356.644 190.176 363.844 185.088 372.292 181.44C380.74 177.792 390.148 175.968 400.516 175.968ZM401.092 194.688C388.612 194.688 378.916 198.24 372.004 205.344C364.9 212.832 360.484 222.816 358.756 235.296H437.956C437.956 229.344 437.092 223.968 435.364 219.168C433.252 213.216 430.948 208.896 428.452 206.208C425.188 202.752 421.252 199.968 416.644 197.856C412.228 195.936 406.948 194.976 400.804 194.976L401.092 194.688ZM522.97 199.008C537.37 183.456 553.498 175.68 571.354 175.68C587.098 175.68 599.194 180.768 607.642 190.944C615.898 200.928 620.026 214.272 620.026 230.976V302.688C629.242 304.416 634.714 305.568 636.442 306.144C639.514 306.72 641.05 308.544 641.05 311.616V324H594.394V231.264C594.394 207.84 584.218 196.128 563.866 196.128C549.466 196.128 536.218 202.944 524.122 216.576V302.976C524.89 302.976 530.458 304.128 540.826 306.432C543.706 307.008 545.146 308.832 545.146 311.904V324H478.042V311.904C478.042 308.832 479.386 307.008 482.074 306.432L498.778 303.264V199.296C489.178 197.568 483.61 196.416 482.074 195.84C479.386 195.264 478.042 193.44 478.042 190.368V178.272H513.754C517.21 178.272 519.514 180 520.666 183.456L522.97 199.296V199.008ZM678.202 145.152C676.666 143.616 675.322 141.696 674.17 139.392C673.21 137.472 672.73 135.168 672.73 132.48C672.73 129.6 673.21 127.2 674.17 125.28C675.514 122.592 676.858 120.576 678.202 119.232C679.738 117.696 681.658 116.352 683.962 115.2C685.882 114.24 688.186 113.76 690.874 113.76C693.562 113.76 695.866 114.24 697.786 115.2C700.09 116.352 702.01 117.696 703.546 119.232C704.89 120.576 706.234 122.592 707.578 125.28C708.73 127.584 709.306 129.984 709.306 132.48C709.306 134.784 708.73 137.088 707.578 139.392C706.426 141.696 705.082 143.616 703.546 145.152C702.01 146.688 700.09 148.032 697.786 149.184C695.866 150.144 693.562 150.624 690.874 150.624C688.186 150.624 685.882 150.144 683.962 149.184C681.658 148.032 679.738 146.688 678.202 145.152ZM719.962 306.144C721.306 306.336 722.362 307.008 723.13 308.16C723.898 309.12 724.282 310.272 724.282 311.616V324H657.178V311.616C657.178 310.272 657.562 309.12 658.33 308.16C659.098 307.008 660.154 306.336 661.498 306.144L678.202 302.976V199.008L661.498 195.84C660.154 195.648 659.098 195.072 658.33 194.112C657.562 192.96 657.178 191.712 657.178 190.368V178.272H703.546V302.976L719.962 306.144ZM786.22 199.008C800.62 183.456 816.748 175.68 834.604 175.68C850.348 175.68 862.444 180.768 870.892 190.944C879.148 200.928 883.276 214.272 883.276 230.976V302.688C892.492 304.416 897.964 305.568 899.692 306.144C902.764 306.72 904.3 308.544 904.3 311.616V324H857.644V231.264C857.644 207.84 847.468 196.128 827.116 196.128C812.716 196.128 799.468 202.944 787.372 216.576V302.976C788.14 302.976 793.708 304.128 804.076 306.432C806.956 307.008 808.396 308.832 808.396 311.904V324H741.292V311.904C741.292 308.832 742.636 307.008 745.324 306.432L762.028 303.264V199.296C752.428 197.568 746.86 196.416 745.324 195.84C742.636 195.264 741.292 193.44 741.292 190.368V178.272H777.004C780.46 178.272 782.764 180 783.916 183.456L786.22 199.296V199.008ZM1035.92 303.552C1023.82 318.528 1005.77 326.016 981.772 326.016C963.34 326.016 948.172 319.392 936.268 306.144C923.788 292.128 917.548 273.696 917.548 250.848C917.548 228.576 923.404 210.624 935.116 196.992C947.404 182.976 964.492 175.968 986.38 175.968C997.324 175.968 1011.72 179.424 1029.58 186.336V224.352H1018.06C1015.37 224.352 1013.74 223.008 1013.16 220.32C1012.97 219.744 1012.59 216.096 1012.01 209.376L1011.15 199.872C1009.04 199.104 1006.92 198.528 1004.81 198.144C1002.89 197.76 1001.55 197.472 1000.78 197.28C995.596 196.512 990.22 196.128 984.652 196.128C979.66 196.128 974.38 197.376 968.812 199.872C963.628 202.176 959.116 205.728 955.276 210.528C947.98 220.128 944.332 233.568 944.332 250.848C944.332 268.128 948.172 281.76 955.852 291.744C963.34 301.344 973.612 306.144 986.668 306.144C998.764 306.144 1009.42 302.112 1018.64 294.048C1020.17 292.512 1022.09 291.744 1024.4 291.744C1026.51 291.744 1028.04 292.512 1029 294.048L1035.92 303.552ZM1071.95 145.152C1070.42 143.616 1069.07 141.696 1067.92 139.392C1066.96 137.472 1066.48 135.168 1066.48 132.48C1066.48 129.6 1066.96 127.2 1067.92 125.28C1069.26 122.592 1070.61 120.576 1071.95 119.232C1073.49 117.696 1075.41 116.352 1077.71 115.2C1079.63 114.24 1081.94 113.76 1084.62 113.76C1087.31 113.76 1089.62 114.24 1091.54 115.2C1093.84 116.352 1095.76 117.696 1097.3 119.232C1098.64 120.576 1099.98 122.592 1101.33 125.28C1102.48 127.584 1103.06 129.984 1103.06 132.48C1103.06 134.784 1102.48 137.088 1101.33 139.392C1100.18 141.696 1098.83 143.616 1097.3 145.152C1095.76 146.688 1093.84 148.032 1091.54 149.184C1089.62 150.144 1087.31 150.624 1084.62 150.624C1081.94 150.624 1079.63 150.144 1077.71 149.184C1075.41 148.032 1073.49 146.688 1071.95 145.152ZM1113.71 306.144C1115.06 306.336 1116.11 307.008 1116.88 308.16C1117.65 309.12 1118.03 310.272 1118.03 311.616V324H1050.93V311.616C1050.93 310.272 1051.31 309.12 1052.08 308.16C1052.85 307.008 1053.9 306.336 1055.25 306.144L1071.95 302.976V199.008L1055.25 195.84C1053.9 195.648 1052.85 195.072 1052.08 194.112C1051.31 192.96 1050.93 191.712 1050.93 190.368V178.272H1097.3V302.976L1113.71 306.144ZM1187.75 326.304C1176.61 326.304 1167.78 323.04 1161.25 316.512C1155.11 310.368 1152.03 301.152 1152.03 288.864V199.584H1134.47C1132.74 199.584 1131.39 199.2 1130.43 198.432C1129.47 197.664 1128.99 196.224 1128.99 194.112V184.032L1152.9 180.864L1158.66 135.648C1158.66 134.112 1159.23 132.96 1160.39 132.192C1161.35 131.424 1162.69 131.04 1164.42 131.04H1177.38V181.152H1219.14V199.872H1177.38V287.424C1177.38 293.76 1178.82 298.368 1181.7 301.248C1184.58 304.128 1188.51 305.568 1193.51 305.568C1195.62 305.568 1198.02 305.184 1200.71 304.416C1202.43 303.84 1204.16 303.072 1205.89 302.112C1206.47 301.728 1207.04 301.344 1207.62 300.96C1208.19 300.576 1208.77 300.192 1209.35 299.808C1210.88 299.04 1211.84 298.656 1212.23 298.656C1213.57 298.656 1214.72 299.424 1215.68 300.96L1223.17 313.056C1217.99 317.472 1212.61 320.736 1207.04 322.848C1200.71 325.152 1194.27 326.304 1187.75 326.304ZM1303.89 175.968C1312.34 175.968 1320.31 177.408 1327.8 180.288C1335.48 183.168 1341.81 187.296 1346.8 192.672C1352.56 198.816 1356.79 205.632 1359.48 213.12C1362.55 221.76 1364.08 230.976 1364.08 240.768C1364.08 245.184 1363.7 247.872 1362.93 248.832C1361.97 250.176 1360.24 250.848 1357.75 250.848H1260.98C1260.98 260.064 1262.13 268.128 1264.44 275.04C1266.36 280.992 1269.62 286.56 1274.23 291.744C1278.45 296.544 1283.25 300 1288.63 302.112C1294.39 304.416 1300.53 305.568 1307.06 305.568C1313.97 305.568 1319.54 304.896 1323.76 303.552C1327.8 302.208 1331.83 300.576 1335.86 298.656C1340.08 296.544 1342.96 295.008 1344.5 294.048C1347 292.512 1348.92 291.744 1350.26 291.744C1352.37 291.744 1354 292.608 1355.16 294.336L1362.36 303.84C1359.67 307.296 1355.83 310.56 1350.84 313.632C1345.08 317.28 1340.37 319.68 1336.72 320.832C1330.96 322.752 1325.78 324.096 1321.17 324.864C1315.41 325.824 1310.13 326.304 1305.33 326.304C1295.35 326.304 1286.04 324.576 1277.4 321.12C1269.14 317.856 1261.75 312.768 1255.22 305.856C1249.08 299.52 1244.28 291.36 1240.82 281.376C1237.36 271.584 1235.64 260.448 1235.64 247.968C1235.64 237.984 1237.27 228.576 1240.53 219.744C1243.8 210.72 1248.31 203.04 1254.07 196.704C1260.02 190.176 1267.22 185.088 1275.67 181.44C1284.12 177.792 1293.52 175.968 1303.89 175.968ZM1304.47 194.688C1291.99 194.688 1282.29 198.24 1275.38 205.344C1268.28 212.832 1263.86 222.816 1262.13 235.296H1341.33C1341.33 229.344 1340.47 223.968 1338.74 219.168C1336.63 213.216 1334.32 208.896 1331.83 206.208C1328.56 202.752 1324.63 199.968 1320.02 197.856C1315.6 195.936 1310.32 194.976 1304.18 194.976L1304.47 194.688Z" fill="black"/>
</g>
</svg>
